<?xml version="1.0" encoding="utf-8"?>
<!-- Generator: Adobe Illustrator 21.1.0, SVG Export Plug-In . SVG Version: 6.00 Build 0)  -->
<svg version="1.1" xmlns="http://www.w3.org/2000/svg" xmlns:xlink="http://www.w3.org/1999/xlink" x="0px" y="0px"
	 viewBox="0 0 450 450" style="enable-background:new 0 0 450 450;" xml:space="preserve">
<style type="text/css">
	.st0{fill:url(#SVGID_1_);}
	.st1{clip-path:url(#SVGID_3_);}
	.st2{opacity:0.35;}
	.st3{fill:none;stroke:#03E7FF;stroke-width:0.3276;stroke-miterlimit:10;}
	.st4{fill:none;stroke:#03E7FF;stroke-width:0.4234;stroke-miterlimit:10;}
	.st5{fill:url(#SVGID_4_);stroke:#03E7FF;stroke-width:0.4234;stroke-miterlimit:10;}
	.st6{opacity:0.6;clip-path:url(#SVGID_6_);}
	.st7{fill:#00EDFF;}
	.st8{fill:url(#SVGID_7_);}
	.st9{fill:url(#SVGID_8_);}
	.st10{fill:url(#SVGID_9_);}
	.st11{fill:url(#SVGID_10_);}
	.st12{fill:url(#SVGID_11_);}
	.st13{fill:url(#SVGID_12_);}
	.st14{fill:url(#SVGID_13_);}
	.st15{fill:url(#SVGID_14_);}
	.st16{fill:url(#SVGID_15_);}
	.st17{fill:url(#SVGID_16_);}
	.st18{fill:url(#SVGID_17_);}
	.st19{fill:url(#SVGID_18_);}
	.st20{fill:url(#SVGID_19_);}
	.st21{fill:url(#SVGID_20_);}
	.st22{fill:url(#SVGID_21_);}
	.st23{fill:url(#SVGID_22_);}
	.st24{fill:url(#SVGID_23_);}
	.st25{fill:url(#SVGID_24_);}
	.st26{fill:url(#SVGID_25_);}
	.st27{fill:url(#SVGID_26_);}
	.st28{fill:url(#SVGID_27_);}
	.st29{fill:url(#SVGID_28_);}
	.st30{fill:url(#SVGID_29_);}
	.st31{fill:url(#SVGID_30_);}
	.st32{fill:url(#SVGID_31_);}
	.st33{fill:url(#SVGID_32_);}
	.st34{fill:url(#SVGID_33_);}
	.st35{fill:url(#SVGID_34_);}
	.st36{fill:url(#SVGID_35_);}
	.st37{fill:url(#SVGID_36_);}
	.st38{fill:url(#SVGID_37_);}
	.st39{fill:url(#SVGID_38_);}
	.st40{fill:#006838;}
	.st41{opacity:0.78;fill:url(#SVGID_39_);}
	.st42{fill:none;stroke:#006838;stroke-miterlimit:10;}
	.st43{fill:#BA1E2D;}
	.st44{fill:#FFFFFF;}
	.st45{fill:#D4145A;}
	.st46{opacity:0.5;fill:#FF7BAC;}
	.st47{fill:#D3DB23;}
	.st48{fill:none;stroke:#006838;stroke-width:3;stroke-miterlimit:10;}
	.st49{font-family:'Comfortaa-Light';}
	.st50{font-size:49.9341px;}
</style>
<g id="BACKGROUND_1_">
	<g>
		<g>
			<radialGradient id="SVGID_1_" cx="3350.7532" cy="376.402" r="468.823" gradientUnits="userSpaceOnUse">
				<stop  offset="0" style="stop-color:#013392"/>
				<stop  offset="1" style="stop-color:#000046"/>
			</radialGradient>
			<rect x="2975.8" y="126.4" class="st0" width="750" height="500"/>
		</g>
		<g>
			<defs>
				<rect id="SVGID_2_" x="2975.8" y="126.4" width="750" height="500"/>
			</defs>
			<clipPath id="SVGID_3_">
				<use xlink:href="#SVGID_2_"  style="overflow:visible;"/>
			</clipPath>
			<g class="st1">
				<g class="st2">
					<line class="st3" x1="3823.2" y1="100.5" x2="3823.2" y2="755.8"/>
					<line class="st3" x1="3802.8" y1="100.5" x2="3802.8" y2="755.8"/>
					<line class="st3" x1="3782.3" y1="100.5" x2="3782.3" y2="755.8"/>
					<line class="st3" x1="3761.8" y1="100.5" x2="3761.8" y2="755.8"/>
					<line class="st3" x1="3741.3" y1="100.5" x2="3741.3" y2="755.8"/>
					<line class="st3" x1="3720.8" y1="100.5" x2="3720.8" y2="755.8"/>
					<line class="st3" x1="3700.4" y1="100.5" x2="3700.4" y2="755.8"/>
					<line class="st3" x1="3679.9" y1="100.5" x2="3679.9" y2="755.8"/>
					<line class="st3" x1="3659.4" y1="100.5" x2="3659.4" y2="755.8"/>
					<line class="st3" x1="3638.9" y1="100.5" x2="3638.9" y2="755.8"/>
					<line class="st3" x1="3618.5" y1="100.5" x2="3618.5" y2="755.8"/>
					<line class="st3" x1="3598" y1="100.5" x2="3598" y2="755.8"/>
					<line class="st3" x1="3577.5" y1="100.5" x2="3577.5" y2="755.8"/>
					<line class="st3" x1="3557" y1="100.5" x2="3557" y2="755.8"/>
					<line class="st3" x1="3536.5" y1="100.5" x2="3536.5" y2="755.8"/>
					<line class="st3" x1="3516.1" y1="100.5" x2="3516.1" y2="755.8"/>
					<line class="st3" x1="3495.6" y1="100.5" x2="3495.6" y2="755.8"/>
					<line class="st3" x1="3475.1" y1="100.5" x2="3475.1" y2="755.8"/>
					<line class="st3" x1="3454.6" y1="100.5" x2="3454.6" y2="755.8"/>
					<line class="st3" x1="3434.2" y1="100.5" x2="3434.2" y2="755.8"/>
					<line class="st3" x1="3413.7" y1="100.5" x2="3413.7" y2="755.8"/>
					<line class="st3" x1="3393.2" y1="100.5" x2="3393.2" y2="755.8"/>
					<line class="st3" x1="3372.7" y1="100.5" x2="3372.7" y2="755.8"/>
					<line class="st3" x1="3352.2" y1="100.5" x2="3352.2" y2="755.8"/>
					<line class="st3" x1="3331.8" y1="100.5" x2="3331.8" y2="755.8"/>
					<line class="st3" x1="3311.3" y1="100.5" x2="3311.3" y2="755.8"/>
					<line class="st3" x1="3290.8" y1="100.5" x2="3290.8" y2="755.8"/>
					<line class="st3" x1="3270.3" y1="100.5" x2="3270.3" y2="755.8"/>
					<line class="st3" x1="3249.9" y1="100.5" x2="3249.9" y2="755.8"/>
					<line class="st3" x1="3229.4" y1="100.5" x2="3229.4" y2="755.8"/>
					<line class="st3" x1="3208.9" y1="100.5" x2="3208.9" y2="755.8"/>
					<line class="st3" x1="3188.4" y1="100.5" x2="3188.4" y2="755.8"/>
					<line class="st3" x1="3823.2" y1="755.8" x2="3823.2" y2="100.5"/>
					<line class="st3" x1="3843.7" y1="755.8" x2="3843.7" y2="100.5"/>
				</g>
				<g class="st2">
					<line class="st3" x1="3148" y1="100.5" x2="3148" y2="755.8"/>
					<line class="st3" x1="3127.5" y1="100.5" x2="3127.5" y2="755.8"/>
					<line class="st3" x1="3107" y1="100.5" x2="3107" y2="755.8"/>
					<line class="st3" x1="3086.5" y1="100.5" x2="3086.5" y2="755.8"/>
					<line class="st3" x1="3066.1" y1="100.5" x2="3066.1" y2="755.8"/>
					<line class="st3" x1="3045.6" y1="100.5" x2="3045.6" y2="755.8"/>
					<line class="st3" x1="3025.1" y1="100.5" x2="3025.1" y2="755.8"/>
					<line class="st3" x1="3004.6" y1="100.5" x2="3004.6" y2="755.8"/>
					<line class="st3" x1="2984.2" y1="100.5" x2="2984.2" y2="755.8"/>
					<line class="st3" x1="2963.7" y1="100.5" x2="2963.7" y2="755.8"/>
					<line class="st3" x1="2943.2" y1="100.5" x2="2943.2" y2="755.8"/>
					<line class="st3" x1="2922.7" y1="100.5" x2="2922.7" y2="755.8"/>
					<line class="st3" x1="2902.2" y1="100.5" x2="2902.2" y2="755.8"/>
					<line class="st3" x1="2881.8" y1="100.5" x2="2881.8" y2="755.8"/>
					<line class="st3" x1="2861.3" y1="100.5" x2="2861.3" y2="755.8"/>
					<line class="st3" x1="2840.8" y1="100.5" x2="2840.8" y2="755.8"/>
					<line class="st3" x1="2820.3" y1="100.5" x2="2820.3" y2="755.8"/>
					<line class="st3" x1="2799.9" y1="100.5" x2="2799.9" y2="755.8"/>
					<line class="st3" x1="2779.4" y1="100.5" x2="2779.4" y2="755.8"/>
					<line class="st3" x1="2758.9" y1="100.5" x2="2758.9" y2="755.8"/>
					<line class="st3" x1="2738.4" y1="100.5" x2="2738.4" y2="755.8"/>
					<line class="st3" x1="2718" y1="100.5" x2="2718" y2="755.8"/>
					<line class="st3" x1="2697.5" y1="100.5" x2="2697.5" y2="755.8"/>
					<line class="st3" x1="2677" y1="100.5" x2="2677" y2="755.8"/>
					<line class="st3" x1="2656.5" y1="100.5" x2="2656.5" y2="755.8"/>
					<line class="st3" x1="2636" y1="100.5" x2="2636" y2="755.8"/>
					<line class="st3" x1="2615.6" y1="100.5" x2="2615.6" y2="755.8"/>
					<line class="st3" x1="2595.1" y1="100.5" x2="2595.1" y2="755.8"/>
					<line class="st3" x1="2574.6" y1="100.5" x2="2574.6" y2="755.8"/>
					<line class="st3" x1="2554.1" y1="100.5" x2="2554.1" y2="755.8"/>
					<line class="st3" x1="2533.7" y1="100.5" x2="2533.7" y2="755.8"/>
					<line class="st3" x1="2513.2" y1="100.5" x2="2513.2" y2="755.8"/>
					<line class="st3" x1="3148" y1="755.8" x2="3148" y2="100.5"/>
					<line class="st3" x1="3168.5" y1="755.8" x2="3168.5" y2="100.5"/>
				</g>
				<g class="st2">
					<line class="st4" x1="2913.4" y1="121" x2="4007.5" y2="121"/>
					<linearGradient id="SVGID_4_" gradientUnits="userSpaceOnUse" x1="3461.0979" y1="160.3631" x2="3475.9517" y2="598.9729">
						<stop  offset="0" style="stop-color:#AE008C"/>
						<stop  offset="0.7351" style="stop-color:#0E0017"/>
					</linearGradient>
					<line class="st5" x1="2913.4" y1="141.4" x2="4007.5" y2="141.4"/>
					<line class="st4" x1="2913.4" y1="161.9" x2="4007.5" y2="161.9"/>
					<line class="st4" x1="2913.4" y1="182.4" x2="4007.5" y2="182.4"/>
					<line class="st4" x1="2913.4" y1="202.9" x2="4007.5" y2="202.9"/>
					<line class="st4" x1="2913.4" y1="223.4" x2="4007.5" y2="223.4"/>
					<line class="st4" x1="2913.4" y1="243.8" x2="4007.5" y2="243.8"/>
					<line class="st4" x1="2913.4" y1="264.3" x2="4007.5" y2="264.3"/>
					<line class="st4" x1="2913.4" y1="284.8" x2="4007.5" y2="284.8"/>
					<line class="st4" x1="2913.4" y1="305.3" x2="4007.5" y2="305.3"/>
					<line class="st4" x1="2913.4" y1="325.7" x2="4007.5" y2="325.7"/>
					<line class="st4" x1="2913.4" y1="346.2" x2="4007.5" y2="346.2"/>
					<line class="st4" x1="2913.4" y1="366.7" x2="4007.5" y2="366.7"/>
					<line class="st4" x1="2913.4" y1="387.2" x2="4007.5" y2="387.2"/>
					<line class="st4" x1="2913.4" y1="407.7" x2="4007.5" y2="407.7"/>
					<line class="st4" x1="2913.4" y1="428.1" x2="4007.5" y2="428.1"/>
					<line class="st4" x1="2913.4" y1="448.6" x2="4007.5" y2="448.6"/>
					<line class="st4" x1="2913.4" y1="469.1" x2="4007.5" y2="469.1"/>
					<line class="st4" x1="2913.4" y1="489.6" x2="4007.5" y2="489.6"/>
					<line class="st4" x1="2913.4" y1="510" x2="4007.5" y2="510"/>
					<line class="st4" x1="2913.4" y1="530.5" x2="4007.5" y2="530.5"/>
					<line class="st4" x1="2913.4" y1="551" x2="4007.5" y2="551"/>
					<line class="st4" x1="2913.4" y1="571.5" x2="4007.5" y2="571.5"/>
					<line class="st4" x1="2913.4" y1="592" x2="4007.5" y2="592"/>
					<line class="st4" x1="2913.4" y1="612.4" x2="4007.5" y2="612.4"/>
					<line class="st4" x1="2913.4" y1="632.9" x2="4007.5" y2="632.9"/>
					<line class="st4" x1="2913.4" y1="653.4" x2="4007.5" y2="653.4"/>
					<line class="st4" x1="2913.4" y1="673.9" x2="4007.5" y2="673.9"/>
					<line class="st4" x1="2913.4" y1="694.3" x2="4007.5" y2="694.3"/>
					<line class="st4" x1="2913.4" y1="714.8" x2="4007.5" y2="714.8"/>
					<line class="st4" x1="2913.4" y1="735.3" x2="4007.5" y2="735.3"/>
					<line class="st4" x1="2913.4" y1="755.8" x2="4007.5" y2="755.8"/>
					<line class="st4" x1="4007.5" y1="121" x2="2913.4" y2="121"/>
					<line class="st4" x1="4007.5" y1="100.5" x2="2913.4" y2="100.5"/>
				</g>
			</g>
		</g>
	</g>
</g>
<g id="OBJECTS">
	<g>
		<g>
			<defs>
				<circle id="SVGID_5_" cx="3350.8" cy="376.4" r="120.7"/>
			</defs>
			<clipPath id="SVGID_6_">
				<use xlink:href="#SVGID_5_"  style="overflow:visible;"/>
			</clipPath>
			<g class="st6">
				<g>
					<path class="st7" d="M3244.9,283.9c-3.5,4-6.7,8.1-9.7,12.4l22.4,15.5c2.4-3.5,5-6.8,7.8-10L3244.9,283.9z M3288.2,250.5
						l12.1,24.4c15.2-7.6,32.3-11.8,50.4-11.8v-27.3C3328.3,235.8,3307,241.1,3288.2,250.5z M3252.8,275.6l19,19.5
						c6.2-6,13-11.3,20.4-15.7l-14.1-23.4C3269,261.6,3260.5,268.1,3252.8,275.6z"/>
				</g>
				<g>
					<path class="st7" d="M3217.7,421.8c1.7,5,3.7,9.9,5.9,14.6l24.6-11.6c-1.8-3.8-3.4-7.8-4.8-11.8L3217.7,421.8z M3210.4,367.6
						l27.2,1.7c1-16.9,5.9-33.9,15-49.6l-23.6-13.6C3217.8,325.6,3211.7,346.6,3210.4,367.6z M3214.5,410.8l26.4-6.7
						c-2.1-8.3-3.3-16.9-3.4-25.5l-27.3,0.5C3210.4,389.8,3211.8,400.5,3214.5,410.8z"/>
				</g>
				<g>
					<path class="st7" d="M3323.6,514.3c5.2,1,10.4,1.8,15.6,2.2l2.2-27.2c-4.2-0.4-8.4-0.9-12.6-1.8L3323.6,514.3z M3273,493.6
						l15.1-22.7c-14.2-9.4-26.4-22.1-35.5-37.8l-23.6,13.6C3240.3,466.2,3255.4,481.9,3273,493.6z M3312.4,511.6l7.4-26.2
						c-8.2-2.4-16.3-5.6-23.8-9.8l-13.2,23.9C3292.2,504.7,3302.1,508.7,3312.4,511.6z"/>
				</g>
				<g>
					<path class="st7" d="M3456.6,468.9c3.5-4,6.7-8.1,9.7-12.4l-22.4-15.5c-2.4,3.5-5,6.8-7.8,10L3456.6,468.9z M3413.3,502.3
						l-12.1-24.4c-15.2,7.6-32.3,11.8-50.4,11.8V517C3373.2,517,3394.5,511.7,3413.3,502.3z M3448.7,477.2l-19-19.5
						c-6.2,6-13,11.3-20.4,15.7l14.1,23.4C3432.5,491.3,3441,484.7,3448.7,477.2z"/>
				</g>
				<g>
					<path class="st7" d="M3483.8,331c-1.7-5-3.7-9.9-5.9-14.6l-24.6,11.6c1.8,3.8,3.4,7.8,4.8,11.8L3483.8,331z M3491.1,385.2
						l-27.2-1.7c-1,16.9-5.9,33.9-15,49.6l23.6,13.6C3483.7,427.2,3489.8,406.2,3491.1,385.2z M3487,342l-26.4,6.7
						c2.1,8.3,3.3,16.9,3.4,25.5l27.3-0.5C3491.1,363,3489.7,352.3,3487,342z"/>
				</g>
				<g>
					<path class="st7" d="M3377.9,238.5c-5.2-1-10.4-1.8-15.6-2.2l-2.2,27.2c4.2,0.4,8.4,0.9,12.6,1.8L3377.9,238.5z M3428.5,259.3
						l-15.1,22.7c14.2,9.4,26.4,22.1,35.5,37.8l23.6-13.6C3461.3,286.6,3446.1,270.9,3428.5,259.3z M3389.1,241.2l-7.4,26.2
						c8.2,2.4,16.3,5.6,23.8,9.8l13.2-23.9C3409.3,248.1,3399.4,244.1,3389.1,241.2z"/>
				</g>
			</g>
		</g>
		<g>
			
				<image style="overflow:visible;opacity:0.3;" width="300" height="300" xlink:href="C4527169AA4945AB.png"  transform="matrix(1 0 0 1 3201.2158 226.8645)">
			</image>
			<g>
				<g>
					<linearGradient id="SVGID_7_" gradientUnits="userSpaceOnUse" x1="3271.3767" y1="467.5988" x2="3271.3767" y2="287.594">
						<stop  offset="0.1604" style="stop-color:#0194F4"/>
						<stop  offset="0.5503" style="stop-color:#71FFFF"/>
						<stop  offset="1" style="stop-color:#01FFF4"/>
					</linearGradient>
					<path class="st8" d="M3269.2,405.1c2.6-1.4,10.9-7.7,10.9-28.3c0-5.7,0.7-11.3,2-16.8c0.5-2-0.8-4-2.8-4.5
						c-2-0.5-4,0.8-4.5,2.8c-1.5,6-2.2,12.3-2.2,18.5c0,16.1-5.7,20.8-6.9,21.6c-1.8,0.6-3.5,1.3-5.2,2.1c0.6,2.5,1.4,4.9,2.2,7.2
						c1.9-0.9,3.8-1.7,5.8-2.4C3268.8,405.3,3269,405.2,3269.2,405.1z"/>
					<linearGradient id="SVGID_8_" gradientUnits="userSpaceOnUse" x1="3271.5183" y1="461.4839" x2="3271.5183" y2="293.6966">
						<stop  offset="0.1604" style="stop-color:#0194F4"/>
						<stop  offset="0.5503" style="stop-color:#71FFFF"/>
						<stop  offset="1" style="stop-color:#01FFF4"/>
					</linearGradient>
					<path class="st9" d="M3263.7,405.7c-0.5-1.4-0.9-2.9-1.3-4.3c1.2-0.5,2.5-1,3.9-1.5c0.1,0,0.2-0.1,0.3-0.2
						c1.8-1.2,7.5-6.4,7.5-22.8c0-6.1,0.7-12.3,2.2-18.2c0.2-1,1.1-1.7,2.2-1.7c0.2,0,0.4,0,0.5,0.1c1.2,0.3,1.9,1.5,1.7,2.7
						c-1.3,5.6-2,11.3-2,17.1c0,19.8-7.8,25.6-10.1,27c-0.1,0.1-0.3,0.1-0.4,0.2C3266.6,404.5,3265.1,405.1,3263.7,405.7z"/>
					<linearGradient id="SVGID_9_" gradientUnits="userSpaceOnUse" x1="3292.4841" y1="467.5986" x2="3292.4841" y2="287.5939">
						<stop  offset="0.1604" style="stop-color:#0194F4"/>
						<stop  offset="0.5503" style="stop-color:#71FFFF"/>
						<stop  offset="1" style="stop-color:#01FFF4"/>
					</linearGradient>
					<path class="st10" d="M3311.6,386.8c0.2-2.1-1.3-3.9-3.3-4.1c-2.1-0.2-3.9,1.3-4.1,3.3c-3.4,32.3-24.6,40-25.4,40.3
						c-1.9,0.6-3.6,1.3-5.3,2.2c1.4,2.1,2.9,4.2,4.5,6.1c1-0.5,2.1-0.9,3.2-1.2C3282.2,433.1,3307.6,423.9,3311.6,386.8z"/>
					<linearGradient id="SVGID_10_" gradientUnits="userSpaceOnUse" x1="3292.8442" y1="463.6432" x2="3292.8442" y2="295.2048">
						<stop  offset="0.1604" style="stop-color:#0194F4"/>
						<stop  offset="0.5503" style="stop-color:#71FFFF"/>
						<stop  offset="1" style="stop-color:#01FFF4"/>
					</linearGradient>
					<path class="st11" d="M3278.4,432.9c-0.9-1.2-1.9-2.4-2.8-3.7c1.1-0.5,2.3-1,3.6-1.4c2.4-0.9,23-9.2,26.4-41.6
						c0.1-1.1,1.1-2,2.2-2c0.1,0,0.2,0,0.3,0c0.6,0.1,1.1,0.4,1.5,0.8c0.4,0.5,0.6,1.1,0.5,1.7c-3.8,36-28.5,45-29.5,45.4
						C3279.8,432.3,3279.1,432.6,3278.4,432.9z"/>
					<linearGradient id="SVGID_11_" gradientUnits="userSpaceOnUse" x1="3299.6978" y1="467.5987" x2="3299.6978" y2="287.5937">
						<stop  offset="0.1604" style="stop-color:#0194F4"/>
						<stop  offset="0.5503" style="stop-color:#71FFFF"/>
						<stop  offset="1" style="stop-color:#01FFF4"/>
					</linearGradient>
					<path class="st12" d="M3315.4,424.2c1.1-1.7,0.7-4-1.1-5.2c-1.7-1.1-4.1-0.7-5.2,1.1c-10.4,15.8-24.2,20.4-24.8,20.6
						c-0.3,0.1-0.6,0.2-1,0.3c1.9,2,3.9,3.9,6,5.7C3294.7,444.4,3306.2,438.1,3315.4,424.2z"/>
					<linearGradient id="SVGID_12_" gradientUnits="userSpaceOnUse" x1="3300.2969" y1="463.4291" x2="3300.2969" y2="304.1435">
						<stop  offset="0.1604" style="stop-color:#0194F4"/>
						<stop  offset="0.5503" style="stop-color:#71FFFF"/>
						<stop  offset="1" style="stop-color:#01FFF4"/>
					</linearGradient>
					<path class="st13" d="M3289.6,445c-1.2-1.1-2.4-2.2-3.6-3.4c3.8-1.6,15.4-7.1,24.3-20.7c0.4-0.6,1.1-1,1.9-1
						c0.4,0,0.9,0.1,1.2,0.4c0.5,0.3,0.8,0.8,1,1.4c0.1,0.6,0,1.2-0.3,1.7C3305.8,436,3295.5,442.2,3289.6,445z"/>
					<linearGradient id="SVGID_13_" gradientUnits="userSpaceOnUse" x1="3302.0398" y1="467.5986" x2="3302.0398" y2="287.5933">
						<stop  offset="0.1604" style="stop-color:#0194F4"/>
						<stop  offset="0.5503" style="stop-color:#71FFFF"/>
						<stop  offset="1" style="stop-color:#01FFF4"/>
					</linearGradient>
					<path class="st14" d="M3275.3,419.3c3.5-1.4,20.8-10,20.8-42.4c0-24.8,15.9-46.4,39.5-53.7c2-0.6,3.1-2.7,2.5-4.7
						c-0.6-2-2.7-3.1-4.7-2.5c-26.8,8.4-44.8,32.8-44.8,60.9c0,27.7-14,34.6-16,35.4c-2.4,0.8-4.6,1.7-6.8,2.9
						c1,2.3,2.2,4.5,3.4,6.7c1.9-1,3.8-1.8,5.9-2.5C3275.1,419.3,3275.2,419.3,3275.3,419.3z"/>
					<linearGradient id="SVGID_14_" gradientUnits="userSpaceOnUse" x1="3302.2747" y1="464.118" x2="3302.2747" y2="290.0175">
						<stop  offset="0.1604" style="stop-color:#0194F4"/>
						<stop  offset="0.5503" style="stop-color:#71FFFF"/>
						<stop  offset="1" style="stop-color:#01FFF4"/>
					</linearGradient>
					<path class="st15" d="M3269.8,419.8c-0.7-1.3-1.4-2.7-2-4c1.7-0.8,3.4-1.5,5.3-2.1c0,0,0.1,0,0.1,0c2.8-1.2,16.9-8.5,16.9-36.8
						c0-27.4,17.6-51.3,43.8-59.4c0.2-0.1,0.4-0.1,0.7-0.1c1,0,1.9,0.6,2.1,1.6c0.4,1.2-0.3,2.5-1.5,2.8
						c-24.3,7.6-40.6,29.7-40.6,55.2c0,31.4-16.5,39.7-19.9,41c0,0-0.1,0-0.1,0l-0.1,0C3273,418.5,3271.4,419.1,3269.8,419.8z"/>
					<linearGradient id="SVGID_15_" gradientUnits="userSpaceOnUse" x1="3319.5632" y1="467.5986" x2="3319.5632" y2="287.5934">
						<stop  offset="0.1604" style="stop-color:#0194F4"/>
						<stop  offset="0.5503" style="stop-color:#71FFFF"/>
						<stop  offset="1" style="stop-color:#01FFF4"/>
					</linearGradient>
					<path class="st16" d="M3338.5,412.8c1.9-5.7,3.4-11.7,4.3-18c0.3-2-1.1-3.9-3.2-4.2c-2-0.3-3.9,1.1-4.2,3.2
						c-0.9,5.8-2.2,11.4-4,16.6c-8.6,25.2-25.8,37-35.2,41.8c2.3,1.6,4.6,3.2,7.1,4.6C3314.2,450.4,3330.2,437.3,3338.5,412.8z"/>
					<linearGradient id="SVGID_16_" gradientUnits="userSpaceOnUse" x1="3320.241" y1="465.3228" x2="3320.241" y2="294.1348">
						<stop  offset="0.1604" style="stop-color:#0194F4"/>
						<stop  offset="0.5503" style="stop-color:#71FFFF"/>
						<stop  offset="1" style="stop-color:#01FFF4"/>
					</linearGradient>
					<path class="st17" d="M3303.3,455.1c-1.4-0.9-2.9-1.8-4.2-2.7c9.9-5.6,25.6-17.7,33.7-41.5c1.8-5.3,3.2-11,4-16.9
						c0.2-1.1,1.1-1.9,2.2-1.9c0.1,0,0.2,0,0.3,0c0.6,0.1,1.1,0.4,1.5,0.9c0.4,0.5,0.5,1.1,0.4,1.7c-0.9,6.2-2.3,12.1-4.2,17.7
						C3329.3,435.4,3314.6,448.2,3303.3,455.1z"/>
					<linearGradient id="SVGID_17_" gradientUnits="userSpaceOnUse" x1="3335.0183" y1="467.5987" x2="3335.0183" y2="287.5938">
						<stop  offset="0.1604" style="stop-color:#0194F4"/>
						<stop  offset="0.5503" style="stop-color:#71FFFF"/>
						<stop  offset="1" style="stop-color:#01FFF4"/>
					</linearGradient>
					<path class="st18" d="M3359.1,376.8c0-2.1-1.7-3.8-3.8-3.8c-2.1,0-3.8,1.7-3.8,3.8c0,31.2-9.6,56.2-28.5,74.3
						c-4.1,4-8.3,7.2-12.1,9.7c2.7,1.3,5.4,2.4,8.2,3.4c2.9-2.1,5.8-4.6,8.8-7.4C3342.2,443.4,3359.1,418.5,3359.1,376.8z"/>
					<linearGradient id="SVGID_18_" gradientUnits="userSpaceOnUse" x1="3335.7893" y1="465.7945" x2="3335.7893" y2="292.0809">
						<stop  offset="0.1604" style="stop-color:#0194F4"/>
						<stop  offset="0.5503" style="stop-color:#71FFFF"/>
						<stop  offset="1" style="stop-color:#01FFF4"/>
					</linearGradient>
					<path class="st19" d="M3318.9,462.6c-1.7-0.6-3.3-1.3-4.9-2c3.6-2.5,6.9-5.3,10.1-8.3c19.2-18.5,29-43.8,29-75.4
						c0-1.2,1-2.2,2.2-2.2c1.2,0,2.2,1,2.2,2.2c0,41.2-16.7,65.6-30.7,78.9C3324.4,458.2,3321.7,460.5,3318.9,462.6z"/>
					<linearGradient id="SVGID_19_" gradientUnits="userSpaceOnUse" x1="3345.7043" y1="467.5986" x2="3345.7043" y2="287.5936">
						<stop  offset="0.1604" style="stop-color:#0194F4"/>
						<stop  offset="0.5503" style="stop-color:#71FFFF"/>
						<stop  offset="1" style="stop-color:#01FFF4"/>
					</linearGradient>
					<path class="st20" d="M3361.3,427.2c-1.9-0.8-4.1,0-4.9,1.9c-5.6,12.7-13.4,23.9-23.2,33.2c-1.7,1.7-3.5,3.2-5.2,4.6
						c3,0.8,6.1,1.4,9.3,1.8c0.4-0.3,0.7-0.7,1.1-1c10.5-10,18.9-22,24.9-35.6C3364,430.3,3363.1,428,3361.3,427.2z"/>
					<linearGradient id="SVGID_20_" gradientUnits="userSpaceOnUse" x1="3346.5667" y1="466.0933" x2="3346.5667" y2="299.3782">
						<stop  offset="0.1604" style="stop-color:#0194F4"/>
						<stop  offset="0.5503" style="stop-color:#71FFFF"/>
						<stop  offset="1" style="stop-color:#01FFF4"/>
					</linearGradient>
					<path class="st21" d="M3336.7,467.2c-1.9-0.3-3.7-0.6-5.6-1c1-0.9,2-1.8,3-2.8c9.9-9.4,17.8-20.8,23.5-33.7
						c0.4-0.8,1.2-1.3,2.1-1.3c0.3,0,0.6,0.1,0.9,0.2c0.6,0.2,1,0.7,1.2,1.2c0.2,0.6,0.2,1.2,0,1.7c-5.9,13.4-14.2,25.3-24.5,35.1
						C3337.3,466.6,3336.9,467,3336.7,467.2z"/>
					<linearGradient id="SVGID_21_" gradientUnits="userSpaceOnUse" x1="3343.4219" y1="467.5987" x2="3343.4219" y2="287.5936">
						<stop  offset="0.1604" style="stop-color:#0194F4"/>
						<stop  offset="0.5503" style="stop-color:#71FFFF"/>
						<stop  offset="1" style="stop-color:#01FFF4"/>
					</linearGradient>
					<path class="st22" d="M3364.5,352.6c1.9,0.8,4.1-0.1,4.9-2c0.8-1.9-0.1-4.1-2-4.9c-4.2-1.8-8.6-2.6-13.1-2.6
						c-18.6,0-33.8,15.1-33.8,33.8c0,9.2-1.1,17.7-3.4,25.4c-0.6,2,0.6,4.1,2.6,4.6c0.3,0.1,0.7,0.1,1,0.1c1.6,0,3.1-1.1,3.6-2.7
						c2.4-8.3,3.6-17.6,3.6-27.5c0-14.5,11.8-26.2,26.2-26.2C3357.9,350.6,3361.3,351.3,3364.5,352.6z"/>
					<linearGradient id="SVGID_22_" gradientUnits="userSpaceOnUse" x1="3343.4216" y1="463.2538" x2="3343.4216" y2="291.697">
						<stop  offset="0.1604" style="stop-color:#0194F4"/>
						<stop  offset="0.5503" style="stop-color:#71FFFF"/>
						<stop  offset="1" style="stop-color:#01FFF4"/>
					</linearGradient>
					<path class="st23" d="M3320.8,405.5c-0.2,0-0.4,0-0.6-0.1c-1.2-0.3-1.9-1.6-1.5-2.8c2.3-7.8,3.4-16.5,3.4-25.8
						c0-17.8,14.5-32.2,32.2-32.2c4.3,0,8.6,0.9,12.5,2.5c1.1,0.5,1.7,1.8,1.2,3c-0.4,0.8-1.2,1.4-2.1,1.4l0,0
						c-0.3,0-0.6-0.1-0.9-0.2c-3.4-1.4-7-2.2-10.8-2.2c-15.3,0-27.8,12.4-27.8,27.8c0,9.7-1.2,18.8-3.6,27
						C3322.7,404.8,3321.8,405.5,3320.8,405.5z"/>
					<linearGradient id="SVGID_23_" gradientUnits="userSpaceOnUse" x1="3355.3384" y1="467.5986" x2="3355.3384" y2="287.5939">
						<stop  offset="0.1604" style="stop-color:#0194F4"/>
						<stop  offset="0.5503" style="stop-color:#71FFFF"/>
						<stop  offset="1" style="stop-color:#01FFF4"/>
					</linearGradient>
					<path class="st24" d="M3365.5,414.7c0.3,0.1,0.6,0.1,0.9,0.1c1.7,0,3.2-1.1,3.6-2.9c2.7-11,4.1-22.8,4.1-35.1
						c0-10.3-8.4-18.8-18.8-18.8c-10.3,0-18.8,8.4-18.8,18.8c0,2.1,1.7,3.8,3.8,3.8c2.1,0,3.8-1.7,3.8-3.8c0-6.2,5-11.2,11.2-11.2
						c6.2,0,11.2,5,11.2,11.2c0,11.8-1.3,23-3.9,33.3C3362.2,412.2,3363.5,414.2,3365.5,414.7z"/>
					<linearGradient id="SVGID_24_" gradientUnits="userSpaceOnUse" x1="3355.3384" y1="463.3083" x2="3355.3384" y2="292.8192">
						<stop  offset="0.1604" style="stop-color:#0194F4"/>
						<stop  offset="0.5503" style="stop-color:#71FFFF"/>
						<stop  offset="1" style="stop-color:#01FFF4"/>
					</linearGradient>
					<path class="st25" d="M3366.4,413.3c-0.2,0-0.4,0-0.5-0.1c-0.6-0.1-1.1-0.5-1.4-1c-0.3-0.5-0.4-1.1-0.3-1.7
						c2.6-10.5,3.9-21.9,3.9-33.7c0-7-5.7-12.8-12.8-12.8c-7,0-12.8,5.7-12.8,12.8c0,1.2-1,2.2-2.2,2.2c-1.2,0-2.2-1-2.2-2.2
						c0-9.5,7.7-17.2,17.2-17.2c9.5,0,17.2,7.7,17.2,17.2c0,12.2-1.4,23.9-4,34.8C3368.3,412.6,3367.4,413.3,3366.4,413.3z"/>
					<linearGradient id="SVGID_25_" gradientUnits="userSpaceOnUse" x1="3367.0532" y1="467.5987" x2="3367.0532" y2="287.5935">
						<stop  offset="0.1604" style="stop-color:#0194F4"/>
						<stop  offset="0.5503" style="stop-color:#71FFFF"/>
						<stop  offset="1" style="stop-color:#01FFF4"/>
					</linearGradient>
					<path class="st26" d="M3384.6,361.9c-0.9-1.9-3.2-2.6-5-1.7c-1.9,0.9-2.6,3.2-1.7,5c1.8,3.6,2.7,7.5,2.7,11.6
						c0,46.3-18,75.6-34.6,92.8c1.6,0.1,3.1,0.1,4.7,0.1c1.8,0,3.6-0.1,5.4-0.2c16.1-18.7,31.9-48.4,31.9-92.8
						C3388.1,371.6,3386.9,366.6,3384.6,361.9z"/>
					<linearGradient id="SVGID_26_" gradientUnits="userSpaceOnUse" x1="3367.9814" y1="466.1567" x2="3367.9814" y2="291.0643">
						<stop  offset="0.1604" style="stop-color:#0194F4"/>
						<stop  offset="0.5503" style="stop-color:#71FFFF"/>
						<stop  offset="1" style="stop-color:#01FFF4"/>
					</linearGradient>
					<path class="st27" d="M3350.7,468.2c-0.5,0-0.9,0-1.4,0c15.4-17,32.7-46.1,32.7-91.4c0-4.3-1-8.5-2.9-12.3
						c-0.3-0.5-0.3-1.1-0.1-1.7c0.2-0.6,0.6-1,1.1-1.3c0.3-0.2,0.6-0.2,1-0.2c0.9,0,1.6,0.5,2,1.2c2.2,4.5,3.3,9.3,3.3,14.3
						c0,45.1-16.8,74.5-31.1,91.3C3354,468.2,3352.4,468.2,3350.7,468.2z"/>
					<linearGradient id="SVGID_27_" gradientUnits="userSpaceOnUse" x1="3379.3118" y1="467.5987" x2="3379.3118" y2="287.5938">
						<stop  offset="0.1604" style="stop-color:#0194F4"/>
						<stop  offset="0.5503" style="stop-color:#71FFFF"/>
						<stop  offset="1" style="stop-color:#01FFF4"/>
					</linearGradient>
					<path class="st28" d="M3390.4,429.4c-1.9-0.7-4.1,0.3-4.8,2.3c-4.8,13.5-11.5,25.9-19.9,36.9c3.7-0.6,7.4-1.4,11-2.5
						c6.6-9.8,11.9-20.5,16-31.9C3393.4,432.2,3392.4,430.1,3390.4,429.4z"/>
					<linearGradient id="SVGID_28_" gradientUnits="userSpaceOnUse" x1="3380.2932" y1="465.5353" x2="3380.2932" y2="302.206">
						<stop  offset="0.1604" style="stop-color:#0194F4"/>
						<stop  offset="0.5503" style="stop-color:#71FFFF"/>
						<stop  offset="1" style="stop-color:#01FFF4"/>
					</linearGradient>
					<path class="st29" d="M3369.2,466.4c7.5-10.3,13.5-21.8,17.9-34.2c0.3-0.9,1.2-1.5,2.1-1.5c0.3,0,0.5,0,0.7,0.1
						c1.2,0.4,1.8,1.7,1.4,2.9c-4,11.1-9.2,21.6-15.5,31.1C3373.6,465.4,3371.4,465.9,3369.2,466.4z"/>
					<linearGradient id="SVGID_29_" gradientUnits="userSpaceOnUse" x1="3353.7393" y1="467.5987" x2="3353.7393" y2="287.5935">
						<stop  offset="0.1604" style="stop-color:#0194F4"/>
						<stop  offset="0.5503" style="stop-color:#71FFFF"/>
						<stop  offset="1" style="stop-color:#01FFF4"/>
					</linearGradient>
					<path class="st30" d="M3396.4,404c0.2,0,0.3,0,0.5,0c1.9,0,3.5-1.4,3.7-3.3c1-7.7,1.5-15.8,1.5-24c0-26.9-21.9-48.8-48.8-48.8
						c-23.4,0-43.5,16.6-47.9,39.5c-0.4,2,0.9,4,3,4.4c2,0.4,4-0.9,4.4-3c3.7-19.4,20.8-33.5,40.5-33.5c22.7,0,41.2,18.5,41.2,41.2
						c0,7.9-0.5,15.6-1.4,23C3392.9,401.9,3394.3,403.8,3396.4,404z"/>
					<linearGradient id="SVGID_30_" gradientUnits="userSpaceOnUse" x1="3353.7397" y1="463.5905" x2="3353.7397" y2="290.691">
						<stop  offset="0.1604" style="stop-color:#0194F4"/>
						<stop  offset="0.5503" style="stop-color:#71FFFF"/>
						<stop  offset="1" style="stop-color:#01FFF4"/>
					</linearGradient>
					<path class="st31" d="M3396.9,402.6c-0.1,0-0.2,0-0.3,0c-0.6-0.1-1.1-0.4-1.5-0.9c-0.4-0.5-0.5-1.1-0.4-1.7
						c1-7.5,1.5-15.3,1.5-23.2c0-23.6-19.2-42.8-42.8-42.8c-20.5,0-38.1,14.6-42,34.7c-0.2,1.1-1.1,1.8-2.2,1.8c-0.1,0-0.3,0-0.4,0
						c-1.2-0.2-2-1.4-1.8-2.6c4.3-22.2,23.8-38.3,46.4-38.3c26.1,0,47.3,21.2,47.3,47.2c0,8.1-0.5,16.1-1.5,23.8
						C3399,401.7,3398,402.6,3396.9,402.6z"/>
					<linearGradient id="SVGID_31_" gradientUnits="userSpaceOnUse" x1="3386.9705" y1="467.5987" x2="3386.9705" y2="287.5943">
						<stop  offset="0.1604" style="stop-color:#0194F4"/>
						<stop  offset="0.5503" style="stop-color:#71FFFF"/>
						<stop  offset="1" style="stop-color:#01FFF4"/>
					</linearGradient>
					<path class="st32" d="M3400.6,335.2c-9.9-11.4-23.5-19-38.4-21.3c-2.1-0.3-4,1.1-4.3,3.1c-0.3,2.1,1.1,4,3.1,4.3
						c27.1,4.2,47.6,28.1,47.6,55.6c0,36.6-9.5,64.7-21.8,85.7c4.1-1.7,8-3.7,11.7-5.9c10.2-20.7,17.6-47,17.6-79.8
						C3416.1,361.5,3410.6,346.8,3400.6,335.2z"/>
					<linearGradient id="SVGID_32_" gradientUnits="userSpaceOnUse" x1="3386.9707" y1="464.2017" x2="3386.9707" y2="289.9282">
						<stop  offset="0.1604" style="stop-color:#0194F4"/>
						<stop  offset="0.5503" style="stop-color:#71FFFF"/>
						<stop  offset="1" style="stop-color:#01FFF4"/>
					</linearGradient>
					<path class="st33" d="M3390.3,459.3c13.1-24.1,19.8-51.8,19.8-82.5c0-28.2-21-52.7-48.8-57.1c-0.6-0.1-1.1-0.4-1.5-0.9
						c-0.4-0.5-0.5-1.1-0.4-1.7c0.2-1.1,1.1-1.9,2.2-1.9c0.1,0,0.2,0,0.4,0c14.5,2.3,27.8,9.7,37.5,20.8
						c9.8,11.3,15.2,25.7,15.2,40.7c0,29-5.8,55.4-17.2,78.7C3395.1,456.9,3392.7,458.1,3390.3,459.3z"/>
					<linearGradient id="SVGID_33_" gradientUnits="userSpaceOnUse" x1="3352.2859" y1="467.5986" x2="3352.2859" y2="287.5936">
						<stop  offset="0.1604" style="stop-color:#0194F4"/>
						<stop  offset="0.5503" style="stop-color:#71FFFF"/>
						<stop  offset="1" style="stop-color:#01FFF4"/>
					</linearGradient>
					<path class="st34" d="M3411.3,338.4c0.7,1.1,1.9,1.7,3.2,1.7c0.7,0,1.4-0.2,2-0.6c1.7-1.1,2.2-3.4,1.1-5.2
						c-14.6-22.7-39.4-36.3-66.3-36.3c-25.5,0-49.5,12.4-64.3,33.3c-1.2,1.7-0.8,4,0.9,5.2s4,0.8,5.2-0.9
						c13.4-18.9,35.1-30.2,58.2-30.2C3375.7,305.6,3398.1,317.8,3411.3,338.4z"/>
					<linearGradient id="SVGID_34_" gradientUnits="userSpaceOnUse" x1="3352.2869" y1="457.0089" x2="3352.2869" y2="289.8404">
						<stop  offset="0.1604" style="stop-color:#0194F4"/>
						<stop  offset="0.5503" style="stop-color:#71FFFF"/>
						<stop  offset="1" style="stop-color:#01FFF4"/>
					</linearGradient>
					<path class="st35" d="M3414.5,338.6c-0.8,0-1.5-0.4-1.9-1c-13.5-21-36.4-33.5-61.2-33.5c-23.5,0-45.7,11.5-59.4,30.8
						c-0.4,0.6-1.1,0.9-1.8,0.9c-0.5,0-0.9-0.1-1.3-0.4c-1-0.7-1.3-2.1-0.5-3.1c14.5-20.5,38.1-32.7,63.1-32.7
						c26.4,0,50.7,13.3,65,35.6c0.3,0.5,0.4,1.1,0.3,1.7c-0.1,0.6-0.5,1.1-1,1.4C3415.3,338.5,3414.9,338.6,3414.5,338.6z"/>
					<linearGradient id="SVGID_35_" gradientUnits="userSpaceOnUse" x1="3350.7532" y1="467.5987" x2="3350.7532" y2="287.5932">
						<stop  offset="0.1604" style="stop-color:#0194F4"/>
						<stop  offset="0.5503" style="stop-color:#71FFFF"/>
						<stop  offset="1" style="stop-color:#01FFF4"/>
					</linearGradient>
					<path class="st36" d="M3352.8,283.1c-0.7,0-1.3,0-2,0h-0.2c-51.5,0.1-93.1,41.8-93.1,93.3c0,5.5,0.5,11,1.4,16.3
						c0.3-0.1,0.6-0.2,0.8-0.4c0.8-0.3,1.5-1,1.9-1.7c1.1-2.2,2.5-6.3,2.5-13.8c0-47.6,38.7-86.2,86.2-86.2
						c47.6,0,86.2,38.7,86.2,86.2c0,16.6-1.7,31.8-4.6,45.6c7.7-13.5,12.1-29.2,12.1-45.9v-0.2
						C3444.1,325.5,3403.4,284.2,3352.8,283.1z"/>
					<linearGradient id="SVGID_36_" gradientUnits="userSpaceOnUse" x1="3350.7534" y1="453.3556" x2="3350.7534" y2="288.7071">
						<stop  offset="0.1604" style="stop-color:#0194F4"/>
						<stop  offset="0.5503" style="stop-color:#71FFFF"/>
						<stop  offset="1" style="stop-color:#01FFF4"/>
					</linearGradient>
					<path class="st37" d="M3435.4,412.1c1.8-11.3,2.7-23.2,2.7-35.2c0-48.4-39.4-87.8-87.8-87.8c-48.4,0-87.8,39.4-87.8,87.8
						c0,7.2-1.3,11-2.3,13.1c-0.1,0.2-0.2,0.3-0.3,0.5c-0.7-4.6-1.1-9.2-1.1-13.9c0-50.5,41.1-91.7,91.6-91.8h0.2c0.7,0,1.3,0,2,0
						c24.1,0.5,46.7,10.3,63.6,27.5c16.9,17.3,26.3,40.1,26.3,64.3v0.2C3442.6,388.8,3440.1,400.9,3435.4,412.1z"/>
					<linearGradient id="SVGID_37_" gradientUnits="userSpaceOnUse" x1="3419.5632" y1="467.5986" x2="3419.5632" y2="287.5937">
						<stop  offset="0.1604" style="stop-color:#0194F4"/>
						<stop  offset="0.5503" style="stop-color:#71FFFF"/>
						<stop  offset="1" style="stop-color:#01FFF4"/>
					</linearGradient>
					<path class="st38" d="M3426.3,373.1c-2.1,0-3.8,1.7-3.8,3.8c0,28.8-5.4,52.7-13.6,72.5c4.4-3.5,8.5-7.4,12.2-11.7
						c5.5-17.5,8.9-37.6,8.9-60.8C3430.1,374.8,3428.4,373.1,3426.3,373.1z"/>
					<linearGradient id="SVGID_38_" gradientUnits="userSpaceOnUse" x1="3420.5969" y1="461.011" x2="3420.5969" y2="296.4064">
						<stop  offset="0.1604" style="stop-color:#0194F4"/>
						<stop  offset="0.5503" style="stop-color:#71FFFF"/>
						<stop  offset="1" style="stop-color:#01FFF4"/>
					</linearGradient>
					<path class="st39" d="M3412.6,444.3c7.6-20.6,11.5-43.3,11.5-67.5c0-1.2,1-2.2,2.2-2.2s2.2,1,2.2,2.2c0,21.2-2.9,41.4-8.7,60
						C3417.6,439.5,3415.2,441.9,3412.6,444.3z"/>
				</g>
			</g>
		</g>
	</g>
	<g>
		<path class="st40" d="M2413.1,397.5c2.6-1.4,10.9-7.7,10.9-28.3c0-5.7,0.7-11.3,2-16.8c0.5-2-0.8-4-2.8-4.5c-2-0.5-4,0.8-4.5,2.8
			c-1.5,6-2.2,12.3-2.2,18.5c0,16.1-5.7,20.8-6.9,21.6c-1.8,0.6-3.5,1.3-5.2,2.1c0.6,2.4,1.4,4.9,2.2,7.2c1.9-0.9,3.8-1.7,5.8-2.4
			C2412.7,397.7,2412.9,397.6,2413.1,397.5z"/>
		<path class="st40" d="M2407.6,398.1c-0.5-1.4-0.9-2.9-1.3-4.3c1.2-0.5,2.5-1,3.9-1.5c0.1,0,0.2-0.1,0.3-0.2
			c1.8-1.2,7.5-6.4,7.5-22.8c0-6.1,0.7-12.3,2.2-18.2c0.2-1,1.1-1.7,2.2-1.7c0.2,0,0.4,0,0.5,0.1c1.2,0.3,1.9,1.5,1.7,2.7
			c-1.3,5.6-2,11.3-2,17.1c0,19.8-7.8,25.6-10.1,27c-0.1,0.1-0.3,0.1-0.4,0.2C2410.5,396.9,2409.1,397.4,2407.6,398.1z"/>
		<path class="st40" d="M2455.5,379.2c0.2-2.1-1.3-3.9-3.3-4.1c-2.1-0.2-3.9,1.3-4.1,3.3c-3.4,32.3-24.6,40-25.4,40.3
			c-1.9,0.6-3.6,1.3-5.3,2.2c1.4,2.1,2.9,4.1,4.5,6.1c1-0.5,2.1-0.9,3.2-1.2C2426.1,425.5,2451.6,416.2,2455.5,379.2z"/>
		<path class="st40" d="M2422.3,425.3c-0.9-1.2-1.9-2.4-2.8-3.7c1.1-0.5,2.3-1,3.6-1.4c2.4-0.9,23-9.2,26.4-41.6
			c0.1-1.1,1.1-2,2.2-2c0.1,0,0.2,0,0.3,0c0.6,0.1,1.1,0.4,1.5,0.8c0.4,0.5,0.6,1.1,0.5,1.7c-3.8,36-28.5,45-29.5,45.4
			C2423.8,424.7,2423,425,2422.3,425.3z"/>
		<path class="st40" d="M2459.3,416.5c1.1-1.7,0.7-4-1.1-5.2c-1.7-1.1-4.1-0.7-5.2,1.1c-10.4,15.8-24.2,20.4-24.8,20.6
			c-0.3,0.1-0.6,0.2-1,0.3c1.9,2,3.9,3.9,6,5.7C2438.6,436.8,2450.2,430.5,2459.3,416.5z"/>
		<path class="st40" d="M2433.6,437.3c-1.2-1.1-2.4-2.2-3.6-3.4c3.8-1.6,15.4-7.1,24.3-20.7c0.4-0.6,1.1-1,1.9-1
			c0.4,0,0.9,0.1,1.2,0.4c0.5,0.3,0.8,0.8,1,1.4c0.1,0.6,0,1.2-0.3,1.7C2449.7,428.4,2439.5,434.6,2433.6,437.3z"/>
		<path class="st40" d="M2419.2,411.7c3.5-1.4,20.8-10,20.8-42.4c0-24.8,15.9-46.4,39.5-53.7c2-0.6,3.1-2.7,2.5-4.7
			c-0.6-2-2.7-3.1-4.7-2.5c-26.8,8.4-44.8,32.8-44.8,60.9c0,27.7-14,34.6-16,35.5c-2.4,0.8-4.6,1.7-6.8,2.9c1,2.3,2.2,4.5,3.4,6.7
			c1.9-1,3.8-1.8,5.9-2.5C2419.1,411.7,2419.2,411.7,2419.2,411.7z"/>
		<path class="st40" d="M2413.8,412.2c-0.7-1.3-1.4-2.7-2-4c1.7-0.8,3.4-1.5,5.3-2.1c0,0,0.1,0,0.1,0c2.8-1.2,16.9-8.5,16.9-36.8
			c0-27.4,17.6-51.3,43.8-59.4c0.2-0.1,0.4-0.1,0.7-0.1c1,0,1.9,0.6,2.1,1.6c0.4,1.2-0.3,2.5-1.5,2.8c-24.3,7.6-40.6,29.7-40.6,55.2
			c0,31.4-16.5,39.7-19.9,41c0,0-0.1,0-0.1,0l-0.1,0C2416.9,410.9,2415.3,411.5,2413.8,412.2z"/>
		<path class="st40" d="M2482.5,405.2c1.9-5.6,3.4-11.7,4.3-18c0.3-2.1-1.1-4-3.2-4.2c-2-0.3-3.9,1.1-4.2,3.2
			c-0.9,5.8-2.2,11.4-4,16.6c-8.6,25.2-25.8,37-35.2,41.8c2.3,1.7,4.6,3.2,7.1,4.6C2458.2,442.8,2474.2,429.6,2482.5,405.2z"/>
		<path class="st40" d="M2447.3,447.4c-1.4-0.9-2.9-1.8-4.2-2.7c9.9-5.6,25.6-17.7,33.7-41.5c1.8-5.3,3.2-11,4-16.9
			c0.2-1.1,1.1-1.9,2.2-1.9c0.1,0,0.2,0,0.3,0c0.6,0.1,1.1,0.4,1.5,0.9c0.4,0.5,0.5,1.1,0.4,1.7c-0.9,6.2-2.3,12.1-4.2,17.7
			C2473.2,427.8,2458.5,440.6,2447.3,447.4z"/>
		<path class="st40" d="M2503,369.2c0-2.1-1.7-3.8-3.8-3.8c-2.1,0-3.8,1.7-3.8,3.8c0,31.2-9.6,56.2-28.5,74.4
			c-4.1,4-8.3,7.1-12.1,9.7c2.7,1.3,5.4,2.4,8.2,3.4c2.9-2.1,5.8-4.6,8.8-7.4C2486.1,435.7,2503,410.9,2503,369.2z"/>
		<path class="st40" d="M2462.9,455c-1.7-0.6-3.3-1.3-4.9-2c3.6-2.5,6.9-5.3,10.1-8.3c19.2-18.5,29-43.8,29-75.4
			c0-1.2,1-2.2,2.2-2.2c1.2,0,2.2,1,2.2,2.2c0,41.2-16.7,65.6-30.7,78.9C2468.3,450.6,2465.6,452.8,2462.9,455z"/>
		<path class="st40" d="M2505.2,419.6c-1.9-0.8-4.1,0-4.9,1.9c-5.6,12.7-13.4,23.9-23.2,33.2c-1.7,1.7-3.5,3.2-5.2,4.6
			c3,0.8,6.1,1.4,9.3,1.8c0.4-0.3,0.7-0.7,1.1-1c10.5-10,18.9-21.9,24.9-35.6C2508,422.7,2507.1,420.4,2505.2,419.6z"/>
		<path class="st40" d="M2480.6,459.6c-1.9-0.3-3.7-0.6-5.6-1c1-0.9,2-1.8,3-2.8c9.9-9.4,17.8-20.8,23.5-33.7
			c0.4-0.8,1.2-1.3,2.1-1.3c0.3,0,0.6,0.1,0.9,0.2c0.6,0.2,1,0.7,1.2,1.2c0.2,0.6,0.2,1.2,0,1.7c-5.9,13.4-14.2,25.3-24.5,35.1
			C2481.2,459,2480.8,459.4,2480.6,459.6z"/>
		<path class="st40" d="M2508.5,345c1.9,0.8,4.1-0.1,4.9-2c0.8-1.9-0.1-4.1-2-4.9c-4.2-1.8-8.6-2.6-13.1-2.6
			c-18.6,0-33.8,15.1-33.8,33.8c0,9.2-1.1,17.7-3.4,25.4c-0.6,2,0.6,4.1,2.6,4.6c0.3,0.1,0.7,0.2,1,0.2c1.6,0,3.1-1.1,3.6-2.7
			c2.4-8.3,3.6-17.6,3.6-27.5c0-14.5,11.8-26.2,26.2-26.2C2501.8,343,2505.3,343.7,2508.5,345z"/>
		<path class="st40" d="M2464.8,397.9c-0.2,0-0.4,0-0.6-0.1c-1.2-0.3-1.9-1.6-1.5-2.8c2.3-7.8,3.4-16.5,3.4-25.8
			c0-17.8,14.5-32.2,32.2-32.2c4.3,0,8.6,0.9,12.5,2.5c1.1,0.5,1.7,1.8,1.2,3c-0.4,0.8-1.2,1.4-2.1,1.4l0,0c-0.3,0-0.6-0.1-0.9-0.2
			c-3.4-1.4-7-2.2-10.8-2.2c-15.3,0-27.8,12.4-27.8,27.8c0,9.7-1.2,18.8-3.6,27C2466.7,397.2,2465.8,397.9,2464.8,397.9z"/>
		<path class="st40" d="M2509.4,407.1c0.3,0.1,0.6,0.1,0.9,0.1c1.7,0,3.2-1.1,3.6-2.9c2.7-11,4.1-22.8,4.1-35.1
			c0-10.3-8.4-18.8-18.8-18.8c-10.3,0-18.8,8.4-18.8,18.8c0,2.1,1.7,3.8,3.8,3.8c2.1,0,3.8-1.7,3.8-3.8c0-6.2,5-11.2,11.2-11.2
			c6.2,0,11.2,5,11.2,11.2c0,11.8-1.3,23-3.9,33.4C2506.2,404.6,2507.4,406.6,2509.4,407.1z"/>
		<path class="st40" d="M2510.3,405.7c-0.2,0-0.4,0-0.5-0.1c-0.6-0.1-1.1-0.5-1.4-1c-0.3-0.5-0.4-1.1-0.3-1.7
			c2.6-10.5,3.9-21.9,3.9-33.7c0-7-5.7-12.8-12.8-12.8c-7,0-12.8,5.7-12.8,12.8c0,1.2-1,2.2-2.2,2.2c-1.2,0-2.2-1-2.2-2.2
			c0-9.5,7.7-17.2,17.2-17.2c9.5,0,17.2,7.7,17.2,17.2c0,12.2-1.4,23.9-4,34.8C2512.3,405,2511.4,405.7,2510.3,405.7z"/>
		<path class="st40" d="M2528.5,354.3c-0.9-1.8-3.2-2.6-5-1.7c-1.9,0.9-2.6,3.2-1.7,5c1.8,3.6,2.7,7.5,2.7,11.6
			c0,46.3-18,75.6-34.6,92.8c1.6,0.1,3.1,0.1,4.7,0.1c1.8,0,3.6-0.1,5.4-0.2c16.1-18.7,31.9-48.4,31.9-92.8
			C2532,364,2530.9,358.9,2528.5,354.3z"/>
		<path class="st40" d="M2494.7,460.6c-0.5,0-0.9,0-1.4,0c15.4-17,32.7-46.1,32.7-91.4c0-4.3-1-8.5-2.9-12.3
			c-0.3-0.5-0.3-1.1-0.1-1.7c0.2-0.6,0.6-1,1.1-1.3c0.3-0.2,0.6-0.2,1-0.2c0.9,0,1.6,0.5,2,1.2c2.2,4.5,3.3,9.3,3.3,14.3
			c0,45.1-16.8,74.5-31.1,91.3C2497.9,460.6,2496.3,460.6,2494.7,460.6z"/>
		<path class="st40" d="M2534.4,421.7c-1.9-0.7-4.1,0.3-4.8,2.3c-4.8,13.5-11.5,25.9-19.9,36.9c3.7-0.6,7.4-1.4,11-2.5
			c6.6-9.8,11.9-20.5,16-31.9C2537.3,424.6,2536.3,422.4,2534.4,421.7z"/>
		<path class="st40" d="M2513.1,458.8c7.5-10.3,13.5-21.8,17.9-34.2c0.3-0.9,1.2-1.5,2.1-1.5c0.3,0,0.5,0,0.7,0.1
			c1.2,0.4,1.8,1.7,1.4,2.9c-4,11.1-9.2,21.6-15.5,31.1C2517.5,457.8,2515.3,458.3,2513.1,458.8z"/>
		<path class="st40" d="M2540.3,396.4c0.2,0,0.3,0,0.5,0c1.9,0,3.5-1.4,3.7-3.3c1-7.7,1.5-15.8,1.5-24c0-26.9-21.9-48.8-48.8-48.8
			c-23.4,0-43.5,16.6-47.9,39.5c-0.4,2,0.9,4,3,4.4c2,0.4,4-0.9,4.4-3c3.7-19.4,20.8-33.5,40.5-33.5c22.7,0,41.2,18.5,41.2,41.2
			c0,7.9-0.5,15.6-1.4,23C2536.8,394.3,2538.3,396.2,2540.3,396.4z"/>
		<path class="st40" d="M2540.8,395c-0.1,0-0.2,0-0.3,0c-0.6-0.1-1.1-0.4-1.5-0.9c-0.4-0.5-0.5-1.1-0.4-1.7c1-7.5,1.5-15.3,1.5-23.2
			c0-23.6-19.2-42.8-42.8-42.8c-20.5,0-38.1,14.6-42,34.7c-0.2,1.1-1.1,1.8-2.2,1.8c-0.1,0-0.3,0-0.4,0c-1.2-0.2-2-1.4-1.8-2.6
			c4.3-22.2,23.8-38.3,46.4-38.3c26.1,0,47.3,21.2,47.3,47.2c0,8.1-0.5,16.1-1.5,23.8C2542.9,394.1,2541.9,395,2540.8,395z"/>
		<path class="st40" d="M2544.5,327.6c-9.9-11.5-23.5-19-38.4-21.3c-2.1-0.3-4,1.1-4.3,3.1c-0.3,2,1.1,4,3.1,4.3
			c27.1,4.2,47.6,28.1,47.6,55.6c0,36.6-9.5,64.7-21.8,85.7c4.1-1.7,8-3.7,11.7-5.9c10.2-20.7,17.6-47,17.6-79.8
			C2560,353.9,2554.5,339.1,2544.5,327.6z"/>
		<path class="st40" d="M2534.3,451.7c13.1-24.1,19.8-51.8,19.8-82.5c0-28.2-21-52.7-48.8-57.1c-0.6-0.1-1.1-0.4-1.5-0.9
			c-0.4-0.5-0.5-1.1-0.4-1.7c0.2-1.1,1.1-1.9,2.2-1.9c0.1,0,0.2,0,0.4,0c14.5,2.3,27.8,9.7,37.5,20.8c9.8,11.3,15.2,25.7,15.2,40.7
			c0,29-5.8,55.4-17.2,78.7C2539,449.3,2536.7,450.5,2534.3,451.7z"/>
		<path class="st40" d="M2555.3,330.8c0.7,1.1,1.9,1.7,3.2,1.7c0.7,0,1.4-0.2,2-0.6c1.7-1.1,2.2-3.4,1.1-5.2
			c-14.6-22.7-39.4-36.3-66.3-36.3c-25.5,0-49.5,12.5-64.3,33.3c-1.2,1.7-0.8,4,0.9,5.2c1.7,1.2,4,0.8,5.2-0.9
			c13.4-18.9,35.1-30.2,58.2-30.2C2519.6,298,2542.1,310.2,2555.3,330.8z"/>
		<path class="st40" d="M2558.4,331c-0.8,0-1.5-0.4-1.9-1c-13.5-21-36.4-33.5-61.2-33.5c-23.5,0-45.7,11.5-59.4,30.8
			c-0.4,0.6-1.1,0.9-1.8,0.9c-0.5,0-0.9-0.1-1.3-0.4c-1-0.7-1.3-2.1-0.5-3.1c14.5-20.5,38.1-32.7,63.1-32.7
			c26.4,0,50.7,13.3,65,35.6c0.3,0.5,0.4,1.1,0.3,1.7c-0.1,0.6-0.5,1.1-1,1.4C2559.3,330.9,2558.9,331,2558.4,331z"/>
		<path class="st40" d="M2496.7,275.5c-0.7,0-1.3,0-2,0h-0.2c-51.5,0.1-93.1,41.9-93.1,93.3c0,5.6,0.5,11,1.4,16.3
			c0.3-0.1,0.6-0.2,0.8-0.4c0.8-0.3,1.5-0.9,1.9-1.7c1.1-2.1,2.5-6.3,2.5-13.8c0-47.6,38.7-86.2,86.2-86.2
			c47.6,0,86.2,38.7,86.2,86.2c0,16.6-1.7,31.8-4.6,45.6c7.7-13.5,12.1-29.2,12.1-45.8v-0.2C2588,317.9,2547.3,276.6,2496.7,275.5z"
			/>
		<path class="st40" d="M2579.3,404.5c1.8-11.3,2.7-23.2,2.7-35.2c0-48.4-39.4-87.8-87.8-87.8c-48.4,0-87.8,39.4-87.8,87.8
			c0,7.2-1.3,11-2.3,13.1c-0.1,0.2-0.2,0.3-0.3,0.5c-0.7-4.6-1.1-9.2-1.1-13.9c0-50.5,41.1-91.7,91.6-91.8h0.2c0.7,0,1.3,0,2,0
			c24.1,0.5,46.7,10.3,63.6,27.5c16.9,17.3,26.3,40.1,26.3,64.3v0.2C2586.5,381.2,2584,393.3,2579.3,404.5z"/>
		<path class="st40" d="M2570.3,365.5c-2.1,0-3.8,1.7-3.8,3.8c0,28.8-5.4,52.7-13.6,72.5c4.4-3.5,8.5-7.5,12.2-11.7
			c5.5-17.5,8.9-37.6,8.9-60.8C2574,367.1,2572.4,365.5,2570.3,365.5z"/>
		<path class="st40" d="M2556.6,436.7c7.6-20.6,11.5-43.3,11.5-67.5c0-1.2,1-2.2,2.2-2.2s2.2,1,2.2,2.2c0,21.2-2.9,41.4-8.7,60
			C2561.6,431.8,2559.1,434.3,2556.6,436.7z"/>
	</g>
	<radialGradient id="SVGID_39_" cx="3350.7532" cy="376.402" r="362.0017" gradientUnits="userSpaceOnUse">
		<stop  offset="0" style="stop-color:#130C0E;stop-opacity:0"/>
		<stop  offset="0.3384" style="stop-color:#120B11;stop-opacity:0.3214"/>
		<stop  offset="0.5698" style="stop-color:#0F091A;stop-opacity:0.5413"/>
		<stop  offset="0.7694" style="stop-color:#0A0629;stop-opacity:0.7309"/>
		<stop  offset="0.9499" style="stop-color:#03023F;stop-opacity:0.9024"/>
		<stop  offset="1" style="stop-color:#000046;stop-opacity:0.95"/>
	</radialGradient>
	<rect x="2975.8" y="126.4" class="st41" width="750" height="500"/>
	<circle class="st42" cx="2494.7" cy="367.5" r="105.6"/>
	
		<text transform="matrix(1 0 0 1 2430.291 520.6862)" class="st40" style="font-family:'RoundedElegance-Regular'; font-size:40.0323px;">singular</text>
	<circle class="st43" cx="2572.5" cy="431.6" r="30.5"/>
	<g>
		<path class="st44" d="M2585,435.8h-8v7.8h-8.8v-7.8h-8v-8.3h8v-7.8h8.8v7.8h8V435.8z"/>
	</g>
	
		<text transform="matrix(1 0 0 1 1893.532 520.6862)" class="st45" style="font-family:'RoundedElegance-Regular'; font-size:40.0323px;">singular</text>
	<path class="st46" d="M1968.2,464.9L1968.2,464.9c16,0,29-13,29-29V388c0-2.5,2.1-4.6,4.6-4.6h52.6c13.4,0,24.3-10.9,24.3-24.3
		v-4.7c0-13.2-10.7-24-24-24h-110v0.5h-0.5v110C1944.3,454.2,1955,464.9,1968.2,464.9z"/>
	<path class="st45" d="M1966.3,242.9L1966.3,242.9c-16,0-29,13-29,29v47.9c0,2.5-2.1,4.6-4.6,4.6h-52.6c-13.4,0-24.3,10.9-24.3,24.3
		v4.7c0,13.2,10.7,24,24,24h110v-0.5h0.5v-110C1990.3,253.6,1979.5,242.9,1966.3,242.9z"/>
	<g>
		<g>
			<text transform="matrix(1 0 0 1 1337.9557 530.7941)" class="st40 st49" style="font-size:40.0323px;">singular</text>
		</g>
		<path class="st47" d="M1416.7,253L1416.7,253c-16,0-29,13-29,29v52.5h-54.8c-14.7,0-26.7,11.9-26.7,26.7v0
			c0,14.5,11.8,26.3,26.3,26.3h107.7V387h0.5V277C1440.6,263.7,1429.9,253,1416.7,253z"/>
		<polyline class="st48" points="1394.6,401.5 1394.6,475 1447.6,475 1447.6,393.5 1528.8,393.5 1528.8,340.5 1461.9,340.5 		"/>
	</g>
	<g>
		<g>
			<text transform="matrix(1 0 0 1 629.8256 432.9228)" class="st40 st49" style="font-size:27.9733px;">singular</text>
		</g>
		<path class="st47" d="M684.8,238.8L684.8,238.8c-11.2,0-20.3,9.1-20.3,20.3v36.7h-38.3c-10.3,0-18.6,8.3-18.6,18.6v0
			c0,10.2,8.2,18.4,18.4,18.4h75.2v-0.3h0.3v-76.9C701.6,246.3,694.1,238.8,684.8,238.8z"/>
		<polyline class="st48" points="669.4,342.6 669.4,393.9 706.5,393.9 706.5,337 763.1,337 763.1,300 716.4,300 		"/>
	</g>
	<g>
		<g>
			<text transform="matrix(1 0 0 1 -425.6096 412.5006)" class="st40 st49 st50">singular</text>
		</g>
		<path class="st47" d="M-327.4,66L-327.4,66c-20,0-36.2,16.2-36.2,36.2v65.4H-432c-18.4,0-33.3,14.9-33.3,33.3v0
			c0,18.1,14.7,32.8,32.8,32.8h134.3v-0.6h0.6V95.9C-297.5,79.4-310.9,66-327.4,66z"/>
		<polyline class="st48" points="-354.9,251.2 -354.9,342.9 -288.8,342.9 -288.8,241.3 -187.6,241.3 -187.6,175.2 -271,175.2 		"/>
	</g>
	<g>
		<g>
			<text transform="matrix(1 0 0 1 125.8516 393.9424)" class="st40 st49 st50">singular</text>
		</g>
		<path class="st47" d="M224,47.4L224,47.4c-20,0-36.2,16.2-36.2,36.2v65.4h-68.4c-18.4,0-33.3,14.9-33.3,33.3v0
			c0,18.1,14.7,32.8,32.8,32.8h134.3v-0.6h0.6V77.3C253.9,60.8,240.5,47.4,224,47.4z"/>
		<polyline class="st48" points="196.5,232.7 196.5,324.4 262.7,324.4 262.7,222.7 363.8,222.7 363.8,156.6 280.4,156.6 		"/>
	</g>
</g>
</svg>
