<?xml version="1.0" encoding="utf-8"?>
<!-- Generator: Adobe Illustrator 21.1.0, SVG Export Plug-In . SVG Version: 6.00 Build 0)  -->
<svg version="1.1" xmlns="http://www.w3.org/2000/svg" xmlns:xlink="http://www.w3.org/1999/xlink" x="0px" y="0px"
	 viewBox="0 0 499 499" style="enable-background:new 0 0 499 499;" xml:space="preserve">
<style type="text/css">
	.st0{fill:url(#SVGID_1_);}
	.st1{clip-path:url(#SVGID_3_);}
	.st2{opacity:0.35;}
	.st3{fill:none;stroke:#03E7FF;stroke-width:0.3276;stroke-miterlimit:10;}
	.st4{fill:none;stroke:#03E7FF;stroke-width:0.4234;stroke-miterlimit:10;}
	.st5{fill:url(#SVGID_4_);stroke:#03E7FF;stroke-width:0.4234;stroke-miterlimit:10;}
	.st6{opacity:0.6;clip-path:url(#SVGID_6_);}
	.st7{fill:#00EDFF;}
	.st8{fill:url(#SVGID_7_);}
	.st9{fill:url(#SVGID_8_);}
	.st10{fill:url(#SVGID_9_);}
	.st11{fill:url(#SVGID_10_);}
	.st12{fill:url(#SVGID_11_);}
	.st13{fill:url(#SVGID_12_);}
	.st14{fill:url(#SVGID_13_);}
	.st15{fill:url(#SVGID_14_);}
	.st16{fill:url(#SVGID_15_);}
	.st17{fill:url(#SVGID_16_);}
	.st18{fill:url(#SVGID_17_);}
	.st19{fill:url(#SVGID_18_);}
	.st20{fill:url(#SVGID_19_);}
	.st21{fill:url(#SVGID_20_);}
	.st22{fill:url(#SVGID_21_);}
	.st23{fill:url(#SVGID_22_);}
	.st24{fill:url(#SVGID_23_);}
	.st25{fill:url(#SVGID_24_);}
	.st26{fill:url(#SVGID_25_);}
	.st27{fill:url(#SVGID_26_);}
	.st28{fill:url(#SVGID_27_);}
	.st29{fill:url(#SVGID_28_);}
	.st30{fill:url(#SVGID_29_);}
	.st31{fill:url(#SVGID_30_);}
	.st32{fill:url(#SVGID_31_);}
	.st33{fill:url(#SVGID_32_);}
	.st34{fill:url(#SVGID_33_);}
	.st35{fill:url(#SVGID_34_);}
	.st36{fill:url(#SVGID_35_);}
	.st37{fill:url(#SVGID_36_);}
	.st38{fill:url(#SVGID_37_);}
	.st39{fill:url(#SVGID_38_);}
	.st40{fill:#006838;}
	.st41{opacity:0.78;fill:url(#SVGID_39_);}
	.st42{fill:none;stroke:#006838;stroke-miterlimit:10;}
	.st43{fill:#BA1E2D;}
	.st44{fill:#FFFFFF;}
	.st45{fill:#D4145A;}
	.st46{opacity:0.5;fill:#FF7BAC;}
	.st47{font-family:'Comfortaa-Light';}
	.st48{font-size:40.0323px;}
	.st49{fill:#D3DB23;}
	.st50{fill:none;stroke:#006838;stroke-width:3;stroke-miterlimit:10;}
</style>
<g id="BACKGROUND_1_">
	<g>
		<g>
			<radialGradient id="SVGID_1_" cx="2173" cy="234" r="468.823" gradientUnits="userSpaceOnUse">
				<stop  offset="0" style="stop-color:#013392"/>
				<stop  offset="1" style="stop-color:#000046"/>
			</radialGradient>
			<rect x="1798" y="-16" class="st0" width="750" height="500"/>
		</g>
		<g>
			<defs>
				<rect id="SVGID_2_" x="1798" y="-16" width="750" height="500"/>
			</defs>
			<clipPath id="SVGID_3_">
				<use xlink:href="#SVGID_2_"  style="overflow:visible;"/>
			</clipPath>
			<g class="st1">
				<g class="st2">
					<line class="st3" x1="2645.5" y1="-41.9" x2="2645.5" y2="613.4"/>
					<line class="st3" x1="2625" y1="-41.9" x2="2625" y2="613.4"/>
					<line class="st3" x1="2604.5" y1="-41.9" x2="2604.5" y2="613.4"/>
					<line class="st3" x1="2584" y1="-41.9" x2="2584" y2="613.4"/>
					<line class="st3" x1="2563.6" y1="-41.9" x2="2563.6" y2="613.4"/>
					<line class="st3" x1="2543.1" y1="-41.9" x2="2543.1" y2="613.4"/>
					<line class="st3" x1="2522.6" y1="-41.9" x2="2522.6" y2="613.4"/>
					<line class="st3" x1="2502.1" y1="-41.9" x2="2502.1" y2="613.4"/>
					<line class="st3" x1="2481.7" y1="-41.9" x2="2481.7" y2="613.4"/>
					<line class="st3" x1="2461.2" y1="-41.9" x2="2461.2" y2="613.4"/>
					<line class="st3" x1="2440.7" y1="-41.9" x2="2440.7" y2="613.4"/>
					<line class="st3" x1="2420.2" y1="-41.9" x2="2420.2" y2="613.4"/>
					<line class="st3" x1="2399.7" y1="-41.9" x2="2399.7" y2="613.4"/>
					<line class="st3" x1="2379.3" y1="-41.9" x2="2379.3" y2="613.4"/>
					<line class="st3" x1="2358.8" y1="-41.9" x2="2358.8" y2="613.4"/>
					<line class="st3" x1="2338.3" y1="-41.9" x2="2338.3" y2="613.4"/>
					<line class="st3" x1="2317.8" y1="-41.9" x2="2317.8" y2="613.4"/>
					<line class="st3" x1="2297.4" y1="-41.9" x2="2297.4" y2="613.4"/>
					<line class="st3" x1="2276.9" y1="-41.9" x2="2276.9" y2="613.4"/>
					<line class="st3" x1="2256.4" y1="-41.9" x2="2256.4" y2="613.4"/>
					<line class="st3" x1="2235.9" y1="-41.9" x2="2235.9" y2="613.4"/>
					<line class="st3" x1="2215.5" y1="-41.9" x2="2215.5" y2="613.4"/>
					<line class="st3" x1="2195" y1="-41.9" x2="2195" y2="613.4"/>
					<line class="st3" x1="2174.5" y1="-41.9" x2="2174.5" y2="613.4"/>
					<line class="st3" x1="2154" y1="-41.9" x2="2154" y2="613.4"/>
					<line class="st3" x1="2133.5" y1="-41.9" x2="2133.5" y2="613.4"/>
					<line class="st3" x1="2113.1" y1="-41.9" x2="2113.1" y2="613.4"/>
					<line class="st3" x1="2092.6" y1="-41.9" x2="2092.6" y2="613.4"/>
					<line class="st3" x1="2072.1" y1="-41.9" x2="2072.1" y2="613.4"/>
					<line class="st3" x1="2051.6" y1="-41.9" x2="2051.6" y2="613.4"/>
					<line class="st3" x1="2031.2" y1="-41.9" x2="2031.2" y2="613.4"/>
					<line class="st3" x1="2010.7" y1="-41.9" x2="2010.7" y2="613.4"/>
					<line class="st3" x1="2645.5" y1="613.4" x2="2645.5" y2="-41.9"/>
					<line class="st3" x1="2666" y1="613.4" x2="2666" y2="-41.9"/>
				</g>
				<g class="st2">
					<line class="st3" x1="1970.2" y1="-41.9" x2="1970.2" y2="613.4"/>
					<line class="st3" x1="1949.7" y1="-41.9" x2="1949.7" y2="613.4"/>
					<line class="st3" x1="1929.3" y1="-41.9" x2="1929.3" y2="613.4"/>
					<line class="st3" x1="1908.8" y1="-41.9" x2="1908.8" y2="613.4"/>
					<line class="st3" x1="1888.3" y1="-41.9" x2="1888.3" y2="613.4"/>
					<line class="st3" x1="1867.8" y1="-41.9" x2="1867.8" y2="613.4"/>
					<line class="st3" x1="1847.4" y1="-41.9" x2="1847.4" y2="613.4"/>
					<line class="st3" x1="1826.9" y1="-41.9" x2="1826.9" y2="613.4"/>
					<line class="st3" x1="1806.4" y1="-41.9" x2="1806.4" y2="613.4"/>
					<line class="st3" x1="1785.9" y1="-41.9" x2="1785.9" y2="613.4"/>
					<line class="st3" x1="1765.4" y1="-41.9" x2="1765.4" y2="613.4"/>
					<line class="st3" x1="1745" y1="-41.9" x2="1745" y2="613.4"/>
					<line class="st3" x1="1724.5" y1="-41.9" x2="1724.5" y2="613.4"/>
					<line class="st3" x1="1704" y1="-41.9" x2="1704" y2="613.4"/>
					<line class="st3" x1="1683.5" y1="-41.9" x2="1683.5" y2="613.4"/>
					<line class="st3" x1="1663.1" y1="-41.9" x2="1663.1" y2="613.4"/>
					<line class="st3" x1="1642.6" y1="-41.9" x2="1642.6" y2="613.4"/>
					<line class="st3" x1="1622.1" y1="-41.9" x2="1622.1" y2="613.4"/>
					<line class="st3" x1="1601.6" y1="-41.9" x2="1601.6" y2="613.4"/>
					<line class="st3" x1="1581.2" y1="-41.9" x2="1581.2" y2="613.4"/>
					<line class="st3" x1="1560.7" y1="-41.9" x2="1560.7" y2="613.4"/>
					<line class="st3" x1="1540.2" y1="-41.9" x2="1540.2" y2="613.4"/>
					<line class="st3" x1="1519.7" y1="-41.9" x2="1519.7" y2="613.4"/>
					<line class="st3" x1="1499.2" y1="-41.9" x2="1499.2" y2="613.4"/>
					<line class="st3" x1="1478.8" y1="-41.9" x2="1478.8" y2="613.4"/>
					<line class="st3" x1="1458.3" y1="-41.9" x2="1458.3" y2="613.4"/>
					<line class="st3" x1="1437.8" y1="-41.9" x2="1437.8" y2="613.4"/>
					<line class="st3" x1="1417.3" y1="-41.9" x2="1417.3" y2="613.4"/>
					<line class="st3" x1="1396.9" y1="-41.9" x2="1396.9" y2="613.4"/>
					<line class="st3" x1="1376.4" y1="-41.9" x2="1376.4" y2="613.4"/>
					<line class="st3" x1="1355.9" y1="-41.9" x2="1355.9" y2="613.4"/>
					<line class="st3" x1="1335.4" y1="-41.9" x2="1335.4" y2="613.4"/>
					<line class="st3" x1="1970.2" y1="613.4" x2="1970.2" y2="-41.9"/>
					<line class="st3" x1="1990.7" y1="613.4" x2="1990.7" y2="-41.9"/>
				</g>
				<g class="st2">
					<line class="st4" x1="1735.6" y1="-21.4" x2="2829.8" y2="-21.4"/>
					<linearGradient id="SVGID_4_" gradientUnits="userSpaceOnUse" x1="2283.3447" y1="17.9611" x2="2298.1982" y2="456.5709">
						<stop  offset="0" style="stop-color:#AE008C"/>
						<stop  offset="0.7351" style="stop-color:#0E0017"/>
					</linearGradient>
					<line class="st5" x1="1735.6" y1="-1" x2="2829.8" y2="-1"/>
					<line class="st4" x1="1735.6" y1="19.5" x2="2829.8" y2="19.5"/>
					<line class="st4" x1="1735.6" y1="40" x2="2829.8" y2="40"/>
					<line class="st4" x1="1735.6" y1="60.5" x2="2829.8" y2="60.5"/>
					<line class="st4" x1="1735.6" y1="81" x2="2829.8" y2="81"/>
					<line class="st4" x1="1735.6" y1="101.4" x2="2829.8" y2="101.4"/>
					<line class="st4" x1="1735.6" y1="121.9" x2="2829.8" y2="121.9"/>
					<line class="st4" x1="1735.6" y1="142.4" x2="2829.8" y2="142.4"/>
					<line class="st4" x1="1735.6" y1="162.9" x2="2829.8" y2="162.9"/>
					<line class="st4" x1="1735.6" y1="183.3" x2="2829.8" y2="183.3"/>
					<line class="st4" x1="1735.6" y1="203.8" x2="2829.8" y2="203.8"/>
					<line class="st4" x1="1735.6" y1="224.3" x2="2829.8" y2="224.3"/>
					<line class="st4" x1="1735.6" y1="244.8" x2="2829.8" y2="244.8"/>
					<line class="st4" x1="1735.6" y1="265.3" x2="2829.8" y2="265.3"/>
					<line class="st4" x1="1735.6" y1="285.7" x2="2829.8" y2="285.7"/>
					<line class="st4" x1="1735.6" y1="306.2" x2="2829.8" y2="306.2"/>
					<line class="st4" x1="1735.6" y1="326.7" x2="2829.8" y2="326.7"/>
					<line class="st4" x1="1735.6" y1="347.2" x2="2829.8" y2="347.2"/>
					<line class="st4" x1="1735.6" y1="367.6" x2="2829.8" y2="367.6"/>
					<line class="st4" x1="1735.6" y1="388.1" x2="2829.8" y2="388.1"/>
					<line class="st4" x1="1735.6" y1="408.6" x2="2829.8" y2="408.6"/>
					<line class="st4" x1="1735.6" y1="429.1" x2="2829.8" y2="429.1"/>
					<line class="st4" x1="1735.6" y1="449.6" x2="2829.8" y2="449.6"/>
					<line class="st4" x1="1735.6" y1="470" x2="2829.8" y2="470"/>
					<line class="st4" x1="1735.6" y1="490.5" x2="2829.8" y2="490.5"/>
					<line class="st4" x1="1735.6" y1="511" x2="2829.8" y2="511"/>
					<line class="st4" x1="1735.6" y1="531.5" x2="2829.8" y2="531.5"/>
					<line class="st4" x1="1735.6" y1="551.9" x2="2829.8" y2="551.9"/>
					<line class="st4" x1="1735.6" y1="572.4" x2="2829.8" y2="572.4"/>
					<line class="st4" x1="1735.6" y1="592.9" x2="2829.8" y2="592.9"/>
					<line class="st4" x1="1735.6" y1="613.4" x2="2829.8" y2="613.4"/>
					<line class="st4" x1="2829.8" y1="-21.4" x2="1735.6" y2="-21.4"/>
					<line class="st4" x1="2829.8" y1="-41.9" x2="1735.6" y2="-41.9"/>
				</g>
			</g>
		</g>
	</g>
</g>
<g id="OBJECTS">
	<g>
		<g>
			<defs>
				<circle id="SVGID_5_" cx="2173" cy="234" r="120.7"/>
			</defs>
			<clipPath id="SVGID_6_">
				<use xlink:href="#SVGID_5_"  style="overflow:visible;"/>
			</clipPath>
			<g class="st6">
				<g>
					<path class="st7" d="M2067.1,141.5c-3.5,4-6.7,8.1-9.7,12.4l22.4,15.5c2.4-3.5,5-6.8,7.8-10L2067.1,141.5z M2110.4,108.1
						l12.1,24.4c15.2-7.6,32.3-11.8,50.4-11.8V93.4C2150.5,93.4,2129.3,98.7,2110.4,108.1z M2075.1,133.2l19,19.5
						c6.2-6,13-11.3,20.4-15.7l-14.1-23.4C2091.2,119.1,2082.7,125.7,2075.1,133.2z"/>
				</g>
				<g>
					<path class="st7" d="M2040,279.4c1.7,5,3.7,9.9,5.9,14.6l24.6-11.6c-1.8-3.8-3.4-7.8-4.8-11.8L2040,279.4z M2032.7,225.2
						l27.2,1.7c1-16.9,5.9-33.9,15-49.6l-23.6-13.6C2040,183.2,2033.9,204.2,2032.7,225.2z M2036.7,268.4l26.4-6.7
						c-2.1-8.3-3.3-16.9-3.4-25.5l-27.3,0.5C2032.6,247.4,2034.1,258.1,2036.7,268.4z"/>
				</g>
				<g>
					<path class="st7" d="M2145.8,371.9c5.2,1,10.4,1.8,15.6,2.2l2.2-27.2c-4.2-0.4-8.4-0.9-12.6-1.8L2145.8,371.9z M2095.2,351.2
						l15.1-22.7c-14.2-9.4-26.4-22.1-35.5-37.8l-23.6,13.6C2062.5,323.8,2077.7,339.5,2095.2,351.2z M2134.6,369.2l7.4-26.2
						c-8.2-2.4-16.3-5.6-23.8-9.8l-13.2,23.9C2114.4,362.3,2124.4,366.3,2134.6,369.2z"/>
				</g>
				<g>
					<path class="st7" d="M2278.9,326.5c3.5-4,6.7-8.1,9.7-12.4l-22.4-15.5c-2.4,3.5-5,6.8-7.8,10L2278.9,326.5z M2235.6,359.9
						l-12.1-24.4c-15.2,7.6-32.3,11.8-50.4,11.8v27.3C2195.5,374.6,2216.7,369.3,2235.6,359.9z M2270.9,334.8l-19-19.5
						c-6.2,6-13,11.3-20.4,15.7l14.1,23.4C2254.8,348.9,2263.3,342.3,2270.9,334.8z"/>
				</g>
				<g>
					<path class="st7" d="M2306,188.6c-1.7-5-3.7-9.9-5.9-14.6l-24.6,11.6c1.8,3.8,3.4,7.8,4.8,11.8L2306,188.6z M2313.3,242.8
						l-27.2-1.7c-1,16.9-5.9,33.9-15,49.6l23.6,13.6C2306,284.8,2312.1,263.8,2313.3,242.8z M2309.3,199.6l-26.4,6.7
						c2.1,8.3,3.3,16.9,3.4,25.5l27.3-0.5C2313.4,220.6,2311.9,209.9,2309.3,199.6z"/>
				</g>
				<g>
					<path class="st7" d="M2200.2,96.1c-5.2-1-10.4-1.8-15.6-2.2l-2.2,27.2c4.2,0.4,8.4,0.9,12.6,1.8L2200.2,96.1z M2250.8,116.8
						l-15.1,22.7c14.2,9.4,26.4,22.1,35.5,37.8l23.6-13.6C2283.5,144.2,2268.3,128.5,2250.8,116.8z M2211.4,98.8l-7.4,26.2
						c8.2,2.4,16.3,5.6,23.8,9.8l13.2-23.9C2231.6,105.7,2221.6,101.7,2211.4,98.8z"/>
				</g>
			</g>
		</g>
		<g>
			
				<image style="overflow:visible;opacity:0.3;" width="300" height="300" xlink:href="8FBC0364A132FB24.png"  transform="matrix(1 0 0 1 2023.4625 84.4625)">
			</image>
			<g>
				<g>
					<linearGradient id="SVGID_7_" gradientUnits="userSpaceOnUse" x1="2093.6235" y1="325.1968" x2="2093.6235" y2="145.192">
						<stop  offset="0.1604" style="stop-color:#0194F4"/>
						<stop  offset="0.5503" style="stop-color:#71FFFF"/>
						<stop  offset="1" style="stop-color:#01FFF4"/>
					</linearGradient>
					<path class="st8" d="M2091.4,262.7c2.6-1.4,10.9-7.7,10.9-28.3c0-5.7,0.7-11.3,2-16.8c0.5-2-0.8-4-2.8-4.5
						c-2-0.5-4,0.8-4.5,2.8c-1.5,6-2.2,12.3-2.2,18.5c0,16.1-5.7,20.8-6.9,21.6c-1.8,0.6-3.5,1.3-5.2,2.1c0.7,2.5,1.4,4.9,2.2,7.2
						c1.9-0.9,3.8-1.7,5.8-2.4C2091,262.9,2091.2,262.8,2091.4,262.7z"/>
					<linearGradient id="SVGID_8_" gradientUnits="userSpaceOnUse" x1="2093.7649" y1="319.082" x2="2093.7649" y2="151.2946">
						<stop  offset="0.1604" style="stop-color:#0194F4"/>
						<stop  offset="0.5503" style="stop-color:#71FFFF"/>
						<stop  offset="1" style="stop-color:#01FFF4"/>
					</linearGradient>
					<path class="st9" d="M2085.9,263.3c-0.5-1.4-0.9-2.9-1.3-4.3c1.2-0.5,2.5-1,3.9-1.5c0.1,0,0.2-0.1,0.3-0.2
						c1.8-1.2,7.5-6.4,7.5-22.8c0-6.1,0.7-12.3,2.2-18.2c0.2-1,1.1-1.7,2.2-1.7c0.2,0,0.4,0,0.5,0.1c1.2,0.3,1.9,1.5,1.7,2.7
						c-1.3,5.6-2,11.3-2,17.1c0,19.8-7.8,25.6-10.1,27c-0.1,0.1-0.3,0.1-0.4,0.2C2088.8,262.1,2087.4,262.7,2085.9,263.3z"/>
					<linearGradient id="SVGID_9_" gradientUnits="userSpaceOnUse" x1="2114.7307" y1="325.1967" x2="2114.7307" y2="145.1919">
						<stop  offset="0.1604" style="stop-color:#0194F4"/>
						<stop  offset="0.5503" style="stop-color:#71FFFF"/>
						<stop  offset="1" style="stop-color:#01FFF4"/>
					</linearGradient>
					<path class="st10" d="M2133.8,244.4c0.2-2.1-1.3-3.9-3.3-4.1c-2.1-0.2-3.9,1.3-4.1,3.3c-3.4,32.3-24.6,40-25.4,40.3
						c-1.9,0.6-3.7,1.3-5.3,2.2c1.4,2.1,2.9,4.1,4.5,6.1c1-0.5,2.1-0.9,3.2-1.2C2104.4,290.7,2129.9,281.5,2133.8,244.4z"/>
					<linearGradient id="SVGID_10_" gradientUnits="userSpaceOnUse" x1="2115.0911" y1="321.2412" x2="2115.0911" y2="152.8029">
						<stop  offset="0.1604" style="stop-color:#0194F4"/>
						<stop  offset="0.5503" style="stop-color:#71FFFF"/>
						<stop  offset="1" style="stop-color:#01FFF4"/>
					</linearGradient>
					<path class="st11" d="M2100.6,290.5c-0.9-1.2-1.9-2.4-2.8-3.7c1.1-0.5,2.3-1,3.6-1.4c2.4-0.9,23-9.2,26.4-41.6
						c0.1-1.1,1.1-2,2.2-2c0.1,0,0.2,0,0.3,0c0.6,0.1,1.1,0.4,1.5,0.8c0.4,0.5,0.6,1.1,0.5,1.7c-3.8,36-28.5,45-29.5,45.4
						C2102.1,289.9,2101.3,290.2,2100.6,290.5z"/>
					<linearGradient id="SVGID_11_" gradientUnits="userSpaceOnUse" x1="2121.9443" y1="325.1967" x2="2121.9443" y2="145.1917">
						<stop  offset="0.1604" style="stop-color:#0194F4"/>
						<stop  offset="0.5503" style="stop-color:#71FFFF"/>
						<stop  offset="1" style="stop-color:#01FFF4"/>
					</linearGradient>
					<path class="st12" d="M2137.6,281.8c1.1-1.7,0.7-4-1.1-5.2c-1.7-1.1-4.1-0.7-5.2,1.1c-10.4,15.8-24.2,20.4-24.8,20.6
						c-0.3,0.1-0.6,0.2-1,0.3c1.9,2,3.9,3.9,6,5.7C2116.9,302,2128.5,295.7,2137.6,281.8z"/>
					<linearGradient id="SVGID_12_" gradientUnits="userSpaceOnUse" x1="2122.5437" y1="321.0271" x2="2122.5437" y2="161.7415">
						<stop  offset="0.1604" style="stop-color:#0194F4"/>
						<stop  offset="0.5503" style="stop-color:#71FFFF"/>
						<stop  offset="1" style="stop-color:#01FFF4"/>
					</linearGradient>
					<path class="st13" d="M2111.9,302.6c-1.2-1.1-2.4-2.2-3.6-3.4c3.8-1.6,15.4-7.1,24.3-20.7c0.4-0.6,1.1-1,1.9-1
						c0.4,0,0.9,0.1,1.2,0.4c0.5,0.3,0.8,0.8,1,1.4s0,1.2-0.3,1.7C2128,293.6,2117.8,299.8,2111.9,302.6z"/>
					<linearGradient id="SVGID_13_" gradientUnits="userSpaceOnUse" x1="2124.2864" y1="325.1966" x2="2124.2864" y2="145.1913">
						<stop  offset="0.1604" style="stop-color:#0194F4"/>
						<stop  offset="0.5503" style="stop-color:#71FFFF"/>
						<stop  offset="1" style="stop-color:#01FFF4"/>
					</linearGradient>
					<path class="st14" d="M2097.5,276.9c3.5-1.4,20.8-10,20.8-42.4c0-24.8,15.9-46.3,39.5-53.7c2-0.6,3.1-2.7,2.5-4.7
						c-0.6-2-2.7-3.1-4.7-2.5c-26.8,8.4-44.8,32.8-44.8,60.9c0,27.7-13.9,34.6-16,35.4c-2.4,0.8-4.6,1.7-6.8,2.9
						c1,2.3,2.2,4.5,3.4,6.7c1.9-1,3.8-1.8,5.9-2.5C2097.4,276.9,2097.5,276.9,2097.5,276.9z"/>
					<linearGradient id="SVGID_14_" gradientUnits="userSpaceOnUse" x1="2124.5215" y1="321.7161" x2="2124.5215" y2="147.6156">
						<stop  offset="0.1604" style="stop-color:#0194F4"/>
						<stop  offset="0.5503" style="stop-color:#71FFFF"/>
						<stop  offset="1" style="stop-color:#01FFF4"/>
					</linearGradient>
					<path class="st15" d="M2092.1,277.4c-0.7-1.3-1.4-2.7-2-4c1.7-0.8,3.4-1.5,5.3-2.1c0,0,0.1,0,0.1,0c2.8-1.2,16.9-8.5,16.9-36.8
						c0-27.4,17.6-51.3,43.8-59.4c0.2-0.1,0.4-0.1,0.7-0.1c1,0,1.9,0.6,2.1,1.6c0.4,1.2-0.3,2.5-1.5,2.8
						c-24.3,7.6-40.6,29.7-40.6,55.2c0,31.4-16.5,39.7-19.9,41c0,0-0.1,0-0.1,0l-0.1,0C2095.2,276.1,2093.6,276.7,2092.1,277.4z"/>
					<linearGradient id="SVGID_15_" gradientUnits="userSpaceOnUse" x1="2141.8101" y1="325.1967" x2="2141.8101" y2="145.1915">
						<stop  offset="0.1604" style="stop-color:#0194F4"/>
						<stop  offset="0.5503" style="stop-color:#71FFFF"/>
						<stop  offset="1" style="stop-color:#01FFF4"/>
					</linearGradient>
					<path class="st16" d="M2160.8,270.4c1.9-5.7,3.4-11.7,4.3-18c0.3-2-1.1-3.9-3.2-4.2c-2-0.3-3.9,1.1-4.2,3.2
						c-0.9,5.8-2.2,11.4-4,16.6c-8.6,25.2-25.8,37-35.2,41.8c2.3,1.6,4.7,3.2,7.1,4.6C2136.5,308,2152.5,294.9,2160.8,270.4z"/>
					<linearGradient id="SVGID_16_" gradientUnits="userSpaceOnUse" x1="2142.4875" y1="322.9208" x2="2142.4875" y2="151.7328">
						<stop  offset="0.1604" style="stop-color:#0194F4"/>
						<stop  offset="0.5503" style="stop-color:#71FFFF"/>
						<stop  offset="1" style="stop-color:#01FFF4"/>
					</linearGradient>
					<path class="st17" d="M2125.6,312.7c-1.4-0.9-2.9-1.8-4.2-2.7c9.9-5.6,25.6-17.7,33.7-41.5c1.8-5.3,3.2-11,4-16.9
						c0.2-1.1,1.1-1.9,2.2-1.9c0.1,0,0.2,0,0.3,0c0.6,0.1,1.1,0.4,1.5,0.9c0.4,0.5,0.5,1.1,0.4,1.7c-0.9,6.2-2.3,12.1-4.2,17.7
						C2151.5,293,2136.8,305.8,2125.6,312.7z"/>
					<linearGradient id="SVGID_17_" gradientUnits="userSpaceOnUse" x1="2157.2649" y1="325.1967" x2="2157.2649" y2="145.1918">
						<stop  offset="0.1604" style="stop-color:#0194F4"/>
						<stop  offset="0.5503" style="stop-color:#71FFFF"/>
						<stop  offset="1" style="stop-color:#01FFF4"/>
					</linearGradient>
					<path class="st18" d="M2181.3,234.4c0-2.1-1.7-3.8-3.8-3.8s-3.8,1.7-3.8,3.8c0,31.2-9.6,56.2-28.5,74.3
						c-4.1,4-8.3,7.2-12.1,9.7c2.7,1.3,5.4,2.4,8.2,3.4c2.8-2.1,5.8-4.6,8.8-7.4C2164.4,301,2181.3,276.1,2181.3,234.4z"/>
					<linearGradient id="SVGID_18_" gradientUnits="userSpaceOnUse" x1="2158.0361" y1="323.3925" x2="2158.0361" y2="149.679">
						<stop  offset="0.1604" style="stop-color:#0194F4"/>
						<stop  offset="0.5503" style="stop-color:#71FFFF"/>
						<stop  offset="1" style="stop-color:#01FFF4"/>
					</linearGradient>
					<path class="st19" d="M2141.2,320.2c-1.7-0.6-3.3-1.3-4.9-2c3.6-2.5,6.9-5.3,10.1-8.3c19.2-18.5,29-43.8,29-75.4
						c0-1.2,1-2.2,2.2-2.2s2.2,1,2.2,2.2c0,41.2-16.7,65.6-30.7,78.9C2146.6,315.8,2144,318.1,2141.2,320.2z"/>
					<linearGradient id="SVGID_19_" gradientUnits="userSpaceOnUse" x1="2167.9512" y1="325.1967" x2="2167.9512" y2="145.1916">
						<stop  offset="0.1604" style="stop-color:#0194F4"/>
						<stop  offset="0.5503" style="stop-color:#71FFFF"/>
						<stop  offset="1" style="stop-color:#01FFF4"/>
					</linearGradient>
					<path class="st20" d="M2183.5,284.8c-1.9-0.8-4.1,0-4.9,1.9c-5.6,12.7-13.4,23.9-23.2,33.2c-1.7,1.7-3.5,3.2-5.2,4.6
						c3,0.8,6.1,1.4,9.3,1.8c0.4-0.3,0.7-0.7,1.1-1c10.5-10,18.9-22,24.9-35.6C2186.3,287.9,2185.4,285.6,2183.5,284.8z"/>
					<linearGradient id="SVGID_20_" gradientUnits="userSpaceOnUse" x1="2168.8135" y1="323.6913" x2="2168.8135" y2="156.9762">
						<stop  offset="0.1604" style="stop-color:#0194F4"/>
						<stop  offset="0.5503" style="stop-color:#71FFFF"/>
						<stop  offset="1" style="stop-color:#01FFF4"/>
					</linearGradient>
					<path class="st21" d="M2158.9,324.8c-1.9-0.3-3.7-0.6-5.6-1c1-0.9,2-1.8,3-2.8c9.9-9.4,17.8-20.8,23.5-33.7
						c0.4-0.8,1.2-1.3,2.1-1.3c0.3,0,0.6,0.1,0.9,0.2c0.6,0.2,1,0.7,1.2,1.2c0.2,0.6,0.2,1.2,0,1.7c-5.9,13.4-14.2,25.3-24.5,35.1
						C2159.5,324.2,2159.1,324.6,2158.9,324.8z"/>
					<linearGradient id="SVGID_21_" gradientUnits="userSpaceOnUse" x1="2165.6685" y1="325.1967" x2="2165.6685" y2="145.1916">
						<stop  offset="0.1604" style="stop-color:#0194F4"/>
						<stop  offset="0.5503" style="stop-color:#71FFFF"/>
						<stop  offset="1" style="stop-color:#01FFF4"/>
					</linearGradient>
					<path class="st22" d="M2186.8,210.2c1.9,0.8,4.1-0.1,4.9-2c0.8-1.9-0.1-4.1-2-4.9c-4.2-1.8-8.6-2.7-13.1-2.7
						c-18.6,0-33.8,15.1-33.8,33.8c0,9.2-1.1,17.7-3.3,25.4c-0.6,2,0.6,4.1,2.6,4.6c0.4,0.1,0.7,0.1,1.1,0.1c1.6,0,3.1-1.1,3.6-2.7
						c2.4-8.3,3.6-17.6,3.6-27.5c0-14.5,11.8-26.2,26.2-26.2C2180.1,208.2,2183.6,208.9,2186.8,210.2z"/>
					<linearGradient id="SVGID_22_" gradientUnits="userSpaceOnUse" x1="2165.6685" y1="320.8518" x2="2165.6685" y2="149.295">
						<stop  offset="0.1604" style="stop-color:#0194F4"/>
						<stop  offset="0.5503" style="stop-color:#71FFFF"/>
						<stop  offset="1" style="stop-color:#01FFF4"/>
					</linearGradient>
					<path class="st23" d="M2143.1,263.1c-0.2,0-0.4,0-0.6-0.1c-1.2-0.3-1.9-1.6-1.5-2.8c2.3-7.8,3.4-16.5,3.4-25.8
						c0-17.8,14.5-32.2,32.2-32.2c4.3,0,8.6,0.9,12.5,2.5c1.1,0.5,1.7,1.8,1.2,3c-0.4,0.8-1.2,1.4-2.1,1.4l0,0
						c-0.3,0-0.6-0.1-0.9-0.2c-3.4-1.4-7-2.2-10.8-2.2c-15.3,0-27.8,12.4-27.8,27.8c0,9.7-1.2,18.8-3.6,27
						C2145,262.4,2144.1,263.1,2143.1,263.1z"/>
					<linearGradient id="SVGID_23_" gradientUnits="userSpaceOnUse" x1="2177.585" y1="325.1967" x2="2177.585" y2="145.1919">
						<stop  offset="0.1604" style="stop-color:#0194F4"/>
						<stop  offset="0.5503" style="stop-color:#71FFFF"/>
						<stop  offset="1" style="stop-color:#01FFF4"/>
					</linearGradient>
					<path class="st24" d="M2187.7,272.3c0.3,0.1,0.6,0.1,0.9,0.1c1.7,0,3.2-1.1,3.6-2.9c2.7-11,4.1-22.8,4.1-35.2
						c0-10.3-8.4-18.8-18.8-18.8c-10.3,0-18.8,8.4-18.8,18.8c0,2.1,1.7,3.8,3.8,3.8s3.8-1.7,3.8-3.8c0-6.2,5-11.2,11.2-11.2
						c6.2,0,11.2,5,11.2,11.2c0,11.8-1.3,23-3.8,33.3C2184.5,269.8,2185.7,271.8,2187.7,272.3z"/>
					<linearGradient id="SVGID_24_" gradientUnits="userSpaceOnUse" x1="2177.585" y1="320.9063" x2="2177.585" y2="150.4172">
						<stop  offset="0.1604" style="stop-color:#0194F4"/>
						<stop  offset="0.5503" style="stop-color:#71FFFF"/>
						<stop  offset="1" style="stop-color:#01FFF4"/>
					</linearGradient>
					<path class="st25" d="M2188.6,270.9c-0.2,0-0.4,0-0.5-0.1c-0.6-0.1-1.1-0.5-1.4-1c-0.3-0.5-0.4-1.1-0.3-1.7
						c2.6-10.5,3.9-21.9,3.9-33.7c0-7-5.7-12.8-12.8-12.8s-12.8,5.7-12.8,12.8c0,1.2-1,2.2-2.2,2.2s-2.2-1-2.2-2.2
						c0-9.5,7.7-17.2,17.2-17.2s17.2,7.7,17.2,17.2c0,12.2-1.4,23.9-4,34.8C2190.6,270.2,2189.7,270.9,2188.6,270.9z"/>
					<linearGradient id="SVGID_25_" gradientUnits="userSpaceOnUse" x1="2189.3" y1="325.1967" x2="2189.3" y2="145.1915">
						<stop  offset="0.1604" style="stop-color:#0194F4"/>
						<stop  offset="0.5503" style="stop-color:#71FFFF"/>
						<stop  offset="1" style="stop-color:#01FFF4"/>
					</linearGradient>
					<path class="st26" d="M2206.8,219.5c-0.9-1.9-3.2-2.6-5-1.7c-1.8,0.9-2.6,3.2-1.7,5c1.8,3.6,2.7,7.5,2.7,11.6
						c0,46.3-18,75.6-34.6,92.8c1.6,0.1,3.1,0.1,4.7,0.1c1.8,0,3.6,0,5.4-0.2c16.1-18.7,31.9-48.4,31.9-92.8
						C2210.3,229.2,2209.2,224.1,2206.8,219.5z"/>
					<linearGradient id="SVGID_26_" gradientUnits="userSpaceOnUse" x1="2190.2283" y1="323.7547" x2="2190.2283" y2="148.6623">
						<stop  offset="0.1604" style="stop-color:#0194F4"/>
						<stop  offset="0.5503" style="stop-color:#71FFFF"/>
						<stop  offset="1" style="stop-color:#01FFF4"/>
					</linearGradient>
					<path class="st27" d="M2173,325.8c-0.5,0-0.9,0-1.4,0c15.4-17,32.7-46.1,32.7-91.4c0-4.3-1-8.5-2.9-12.3
						c-0.3-0.5-0.3-1.1-0.1-1.7c0.2-0.6,0.6-1,1.1-1.3c0.3-0.2,0.6-0.2,1-0.2c0.9,0,1.6,0.5,2,1.2c2.2,4.5,3.3,9.3,3.3,14.3
						c0,45.1-16.8,74.5-31.1,91.3C2176.2,325.8,2174.6,325.8,2173,325.8z"/>
					<linearGradient id="SVGID_27_" gradientUnits="userSpaceOnUse" x1="2201.5583" y1="325.1967" x2="2201.5583" y2="145.1918">
						<stop  offset="0.1604" style="stop-color:#0194F4"/>
						<stop  offset="0.5503" style="stop-color:#71FFFF"/>
						<stop  offset="1" style="stop-color:#01FFF4"/>
					</linearGradient>
					<path class="st28" d="M2212.7,287c-1.9-0.7-4.1,0.3-4.8,2.3c-4.8,13.5-11.5,25.9-19.9,36.9c3.7-0.6,7.4-1.4,11-2.5
						c6.6-9.8,11.9-20.5,16-31.9C2215.6,289.8,2214.6,287.6,2212.7,287z"/>
					<linearGradient id="SVGID_28_" gradientUnits="userSpaceOnUse" x1="2202.54" y1="323.1333" x2="2202.54" y2="159.804">
						<stop  offset="0.1604" style="stop-color:#0194F4"/>
						<stop  offset="0.5503" style="stop-color:#71FFFF"/>
						<stop  offset="1" style="stop-color:#01FFF4"/>
					</linearGradient>
					<path class="st29" d="M2191.4,324c7.5-10.3,13.5-21.8,17.9-34.2c0.3-0.9,1.2-1.5,2.1-1.5c0.3,0,0.5,0,0.7,0.1
						c1.2,0.4,1.8,1.7,1.4,2.9c-4,11.1-9.2,21.6-15.5,31.1C2195.8,323,2193.6,323.5,2191.4,324z"/>
					<linearGradient id="SVGID_29_" gradientUnits="userSpaceOnUse" x1="2175.9861" y1="325.1967" x2="2175.9861" y2="145.1916">
						<stop  offset="0.1604" style="stop-color:#0194F4"/>
						<stop  offset="0.5503" style="stop-color:#71FFFF"/>
						<stop  offset="1" style="stop-color:#01FFF4"/>
					</linearGradient>
					<path class="st30" d="M2218.6,261.6c0.2,0,0.3,0,0.5,0c1.9,0,3.5-1.4,3.7-3.3c1-7.7,1.5-15.8,1.5-24
						c0-26.9-21.9-48.8-48.8-48.8c-23.3,0-43.5,16.6-47.9,39.6c-0.4,2,0.9,4,3,4.4c2,0.4,4-0.9,4.4-3c3.7-19.4,20.8-33.5,40.5-33.5
						c22.7,0,41.2,18.5,41.2,41.2c0,7.9-0.5,15.6-1.4,23C2215.1,259.5,2216.6,261.4,2218.6,261.6z"/>
					<linearGradient id="SVGID_30_" gradientUnits="userSpaceOnUse" x1="2175.9866" y1="321.1885" x2="2175.9866" y2="148.289">
						<stop  offset="0.1604" style="stop-color:#0194F4"/>
						<stop  offset="0.5503" style="stop-color:#71FFFF"/>
						<stop  offset="1" style="stop-color:#01FFF4"/>
					</linearGradient>
					<path class="st31" d="M2219.1,260.2c-0.1,0-0.2,0-0.3,0c-0.6-0.1-1.1-0.4-1.5-0.9c-0.4-0.5-0.5-1.1-0.4-1.7
						c1-7.5,1.5-15.3,1.5-23.2c0-23.6-19.2-42.8-42.8-42.8c-20.5,0-38.1,14.6-42,34.7c-0.2,1.1-1.1,1.8-2.2,1.8c-0.1,0-0.3,0-0.4,0
						c-1.2-0.2-2-1.4-1.8-2.6c4.3-22.2,23.8-38.3,46.4-38.3c26.1,0,47.3,21.2,47.3,47.2c0,8.1-0.5,16.1-1.5,23.8
						C2221.2,259.3,2220.2,260.2,2219.1,260.2z"/>
					<linearGradient id="SVGID_31_" gradientUnits="userSpaceOnUse" x1="2209.2173" y1="325.1967" x2="2209.2173" y2="145.1923">
						<stop  offset="0.1604" style="stop-color:#0194F4"/>
						<stop  offset="0.5503" style="stop-color:#71FFFF"/>
						<stop  offset="1" style="stop-color:#01FFF4"/>
					</linearGradient>
					<path class="st32" d="M2222.8,192.8c-9.9-11.4-23.5-19-38.4-21.3c-2.1-0.3-4,1.1-4.3,3.1c-0.3,2.1,1.1,4,3.1,4.3
						c27.1,4.2,47.6,28.1,47.6,55.6c0,36.6-9.5,64.7-21.8,85.7c4.1-1.7,8-3.7,11.7-5.9c10.2-20.7,17.6-47,17.6-79.8
						C2238.3,219.1,2232.8,204.4,2222.8,192.8z"/>
					<linearGradient id="SVGID_32_" gradientUnits="userSpaceOnUse" x1="2209.2175" y1="321.7997" x2="2209.2175" y2="147.5262">
						<stop  offset="0.1604" style="stop-color:#0194F4"/>
						<stop  offset="0.5503" style="stop-color:#71FFFF"/>
						<stop  offset="1" style="stop-color:#01FFF4"/>
					</linearGradient>
					<path class="st33" d="M2212.6,316.9c13.1-24.1,19.8-51.8,19.8-82.5c0-28.2-21-52.7-48.8-57.1c-0.6-0.1-1.1-0.4-1.5-0.9
						c-0.4-0.5-0.5-1.1-0.4-1.7c0.2-1.1,1.1-1.9,2.2-1.9c0.1,0,0.2,0,0.4,0c14.5,2.3,27.8,9.7,37.5,20.8
						c9.8,11.3,15.2,25.7,15.2,40.7c0,29-5.8,55.4-17.2,78.7C2217.3,314.5,2215,315.7,2212.6,316.9z"/>
					<linearGradient id="SVGID_33_" gradientUnits="userSpaceOnUse" x1="2174.5325" y1="325.1966" x2="2174.5325" y2="145.1916">
						<stop  offset="0.1604" style="stop-color:#0194F4"/>
						<stop  offset="0.5503" style="stop-color:#71FFFF"/>
						<stop  offset="1" style="stop-color:#01FFF4"/>
					</linearGradient>
					<path class="st34" d="M2233.6,196c0.7,1.1,1.9,1.7,3.2,1.7c0.7,0,1.4-0.2,2-0.6c1.7-1.1,2.2-3.4,1.1-5.2
						c-14.6-22.7-39.4-36.3-66.3-36.3c-25.5,0-49.5,12.4-64.3,33.3c-1.2,1.7-0.8,4,0.9,5.2s4,0.8,5.2-0.9
						c13.4-18.9,35.1-30.2,58.2-30.2C2197.9,163.2,2220.4,175.4,2233.6,196z"/>
					<linearGradient id="SVGID_34_" gradientUnits="userSpaceOnUse" x1="2174.5337" y1="314.6069" x2="2174.5337" y2="147.4384">
						<stop  offset="0.1604" style="stop-color:#0194F4"/>
						<stop  offset="0.5503" style="stop-color:#71FFFF"/>
						<stop  offset="1" style="stop-color:#01FFF4"/>
					</linearGradient>
					<path class="st35" d="M2236.7,196.2c-0.8,0-1.5-0.4-1.9-1c-13.5-21-36.4-33.5-61.2-33.5c-23.5,0-45.7,11.5-59.4,30.8
						c-0.4,0.6-1.1,0.9-1.8,0.9c-0.5,0-0.9-0.1-1.3-0.4c-1-0.7-1.3-2.1-0.5-3.1c14.5-20.5,38.1-32.7,63.1-32.7
						c26.4,0,50.7,13.3,65,35.6c0.3,0.5,0.4,1.1,0.3,1.7c-0.1,0.6-0.5,1.1-1,1.4C2237.6,196.1,2237.2,196.2,2236.7,196.2z"/>
					<linearGradient id="SVGID_35_" gradientUnits="userSpaceOnUse" x1="2173" y1="325.1967" x2="2173" y2="145.1913">
						<stop  offset="0.1604" style="stop-color:#0194F4"/>
						<stop  offset="0.5503" style="stop-color:#71FFFF"/>
						<stop  offset="1" style="stop-color:#01FFF4"/>
					</linearGradient>
					<path class="st36" d="M2175,140.7c-0.7,0-1.3,0-2,0h-0.2c-51.4,0.1-93.1,41.9-93.1,93.3c0,5.6,0.5,11,1.4,16.3
						c0.3-0.1,0.6-0.2,0.8-0.3c0.8-0.3,1.5-0.9,1.9-1.7c1.1-2.1,2.5-6.3,2.5-13.8c0-47.6,38.7-86.2,86.2-86.2s86.2,38.7,86.2,86.2
						c0,16.7-1.7,31.8-4.6,45.6c7.7-13.5,12.1-29.2,12.1-45.8V234C2266.3,183.1,2225.6,141.8,2175,140.7z"/>
					<linearGradient id="SVGID_36_" gradientUnits="userSpaceOnUse" x1="2173.0002" y1="310.9536" x2="2173.0002" y2="146.3051">
						<stop  offset="0.1604" style="stop-color:#0194F4"/>
						<stop  offset="0.5503" style="stop-color:#71FFFF"/>
						<stop  offset="1" style="stop-color:#01FFF4"/>
					</linearGradient>
					<path class="st37" d="M2257.6,269.7c1.8-11.3,2.7-23.2,2.7-35.2c0-48.4-39.4-87.8-87.8-87.8s-87.8,39.4-87.8,87.8
						c0,7.2-1.3,11-2.3,13.1c-0.1,0.2-0.2,0.3-0.3,0.5c-0.7-4.6-1.1-9.2-1.1-13.9c0-50.5,41.1-91.7,91.6-91.8h0.2c0.7,0,1.3,0,2,0
						c24.1,0.5,46.7,10.3,63.6,27.5c16.9,17.3,26.3,40.1,26.3,64.3v0.2C2264.8,246.4,2262.3,258.5,2257.6,269.7z"/>
					<linearGradient id="SVGID_37_" gradientUnits="userSpaceOnUse" x1="2241.8101" y1="325.1967" x2="2241.8101" y2="145.1917">
						<stop  offset="0.1604" style="stop-color:#0194F4"/>
						<stop  offset="0.5503" style="stop-color:#71FFFF"/>
						<stop  offset="1" style="stop-color:#01FFF4"/>
					</linearGradient>
					<path class="st38" d="M2248.6,230.7c-2.1,0-3.8,1.7-3.8,3.8c0,28.8-5.4,52.7-13.6,72.5c4.4-3.5,8.5-7.4,12.2-11.7
						c5.5-17.5,8.9-37.6,8.9-60.8C2252.3,232.4,2250.7,230.7,2248.6,230.7z"/>
					<linearGradient id="SVGID_38_" gradientUnits="userSpaceOnUse" x1="2242.8438" y1="318.609" x2="2242.8438" y2="154.0044">
						<stop  offset="0.1604" style="stop-color:#0194F4"/>
						<stop  offset="0.5503" style="stop-color:#71FFFF"/>
						<stop  offset="1" style="stop-color:#01FFF4"/>
					</linearGradient>
					<path class="st39" d="M2234.9,301.9c7.6-20.6,11.5-43.3,11.5-67.5c0-1.2,1-2.2,2.2-2.2s2.2,1,2.2,2.2c0,21.2-2.9,41.4-8.7,60
						C2239.9,297.1,2237.4,299.5,2234.9,301.9z"/>
				</g>
			</g>
		</g>
	</g>
	<g>
		<path class="st40" d="M1235.4,255.1c2.6-1.4,10.9-7.7,10.9-28.3c0-5.7,0.7-11.3,2-16.8c0.5-2-0.8-4-2.8-4.5c-2-0.5-4,0.8-4.5,2.8
			c-1.5,6-2.2,12.3-2.2,18.5c0,16.1-5.7,20.8-6.9,21.6c-1.8,0.6-3.5,1.3-5.2,2.1c0.6,2.4,1.4,4.9,2.2,7.2c1.9-0.9,3.8-1.7,5.8-2.4
			C1235,255.3,1235.2,255.2,1235.4,255.1z"/>
		<path class="st40" d="M1229.9,255.7c-0.5-1.4-0.9-2.9-1.3-4.3c1.2-0.5,2.5-1,3.9-1.5c0.1,0,0.2-0.1,0.3-0.2
			c1.8-1.2,7.5-6.4,7.5-22.8c0-6.1,0.7-12.3,2.2-18.2c0.2-1,1.1-1.7,2.2-1.7c0.2,0,0.4,0,0.5,0.1c1.2,0.3,1.9,1.5,1.7,2.7
			c-1.3,5.6-2,11.3-2,17.1c0,19.8-7.8,25.6-10.1,27c-0.1,0.1-0.3,0.1-0.4,0.2C1232.8,254.5,1231.3,255,1229.9,255.7z"/>
		<path class="st40" d="M1277.8,236.8c0.2-2.1-1.3-3.9-3.3-4.1c-2.1-0.2-3.9,1.3-4.1,3.3c-3.4,32.3-24.6,40-25.4,40.3
			c-1.9,0.6-3.6,1.3-5.3,2.2c1.4,2.1,2.9,4.1,4.5,6.1c1-0.5,2.1-0.9,3.2-1.2C1248.4,283.1,1273.8,273.8,1277.8,236.8z"/>
		<path class="st40" d="M1244.5,282.9c-0.9-1.2-1.9-2.4-2.8-3.7c1.1-0.5,2.3-1,3.6-1.4c2.4-0.9,23-9.2,26.4-41.6
			c0.1-1.1,1.1-2,2.2-2c0.1,0,0.2,0,0.3,0c0.6,0.1,1.1,0.4,1.5,0.8c0.4,0.5,0.6,1.1,0.5,1.7c-3.8,36-28.5,45-29.5,45.4
			C1246,282.3,1245.3,282.6,1244.5,282.9z"/>
		<path class="st40" d="M1281.6,274.1c1.1-1.7,0.7-4-1.1-5.2c-1.7-1.1-4.1-0.7-5.2,1.1c-10.4,15.8-24.2,20.4-24.8,20.6
			c-0.3,0.1-0.7,0.2-1,0.3c1.9,2,3.9,3.9,6,5.7C1260.9,294.4,1272.4,288.1,1281.6,274.1z"/>
		<path class="st40" d="M1255.8,294.9c-1.2-1.1-2.4-2.2-3.6-3.4c3.8-1.6,15.4-7.1,24.3-20.7c0.4-0.6,1.1-1,1.9-1
			c0.4,0,0.9,0.1,1.2,0.4c0.5,0.3,0.8,0.8,1,1.4c0.1,0.6,0,1.2-0.3,1.7C1272,286,1261.7,292.2,1255.8,294.9z"/>
		<path class="st40" d="M1241.5,269.2c3.5-1.4,20.8-10,20.8-42.4c0-24.8,15.9-46.4,39.5-53.7c2-0.6,3.1-2.7,2.5-4.7
			c-0.6-2-2.7-3.1-4.7-2.5c-26.8,8.4-44.8,32.8-44.8,60.9c0,27.7-13.9,34.6-16,35.4c-2.4,0.8-4.6,1.7-6.8,2.9c1,2.3,2.2,4.5,3.4,6.7
			c1.9-1,3.8-1.8,5.9-2.5C1241.3,269.3,1241.4,269.3,1241.5,269.2z"/>
		<path class="st40" d="M1236,269.8c-0.7-1.3-1.4-2.7-2-4c1.7-0.8,3.4-1.5,5.3-2.1c0,0,0.1,0,0.1,0c2.8-1.2,16.9-8.5,16.9-36.8
			c0-27.4,17.6-51.3,43.8-59.4c0.2-0.1,0.4-0.1,0.7-0.1c1,0,1.9,0.6,2.1,1.6c0.4,1.2-0.3,2.5-1.5,2.8c-24.3,7.6-40.6,29.7-40.6,55.2
			c0,31.4-16.5,39.7-19.9,41c0,0-0.1,0-0.1,0l-0.1,0C1239.2,268.4,1237.6,269.1,1236,269.8z"/>
		<path class="st40" d="M1304.7,262.8c1.9-5.6,3.4-11.7,4.3-18c0.3-2.1-1.1-3.9-3.2-4.2c-2-0.3-4,1.1-4.2,3.2
			c-0.9,5.8-2.2,11.4-4,16.6c-8.6,25.2-25.8,37-35.2,41.8c2.3,1.7,4.7,3.2,7.1,4.6C1280.4,300.4,1296.4,287.2,1304.7,262.8z"/>
		<path class="st40" d="M1269.5,305c-1.4-0.9-2.9-1.8-4.2-2.7c9.9-5.6,25.6-17.7,33.7-41.5c1.8-5.3,3.2-11,4-16.9
			c0.2-1.1,1.1-1.9,2.2-1.9c0.1,0,0.2,0,0.3,0c0.6,0.1,1.1,0.4,1.5,0.9c0.4,0.5,0.5,1.1,0.4,1.7c-0.9,6.2-2.3,12.1-4.2,17.7
			C1295.5,285.4,1280.8,298.2,1269.5,305z"/>
		<path class="st40" d="M1325.3,226.8c0-2.1-1.7-3.8-3.8-3.8c-2.1,0-3.8,1.7-3.8,3.8c0,31.2-9.6,56.2-28.5,74.4
			c-4.1,4-8.3,7.1-12.1,9.7c2.7,1.3,5.4,2.4,8.2,3.4c2.8-2.1,5.8-4.6,8.8-7.4C1308.4,293.3,1325.3,268.5,1325.3,226.8z"/>
		<path class="st40" d="M1285.1,312.6c-1.7-0.6-3.3-1.3-4.9-2c3.6-2.5,6.9-5.3,10.1-8.3c19.2-18.5,29-43.8,29-75.4
			c0-1.2,1-2.2,2.2-2.2s2.2,1,2.2,2.2c0,41.2-16.7,65.6-30.7,78.9C1290.6,308.2,1287.9,310.4,1285.1,312.6z"/>
		<path class="st40" d="M1327.5,277.2c-1.9-0.8-4.1,0-4.9,1.9c-5.6,12.7-13.4,23.9-23.2,33.2c-1.7,1.7-3.5,3.2-5.2,4.6
			c3,0.8,6.1,1.4,9.3,1.8c0.4-0.3,0.7-0.7,1.1-1c10.5-10,18.9-22,24.9-35.6C1330.2,280.2,1329.3,278,1327.5,277.2z"/>
		<path class="st40" d="M1302.9,317.1c-1.9-0.3-3.7-0.6-5.6-1c1-0.9,2-1.8,3-2.8c9.9-9.4,17.8-20.8,23.5-33.7
			c0.4-0.8,1.2-1.3,2.1-1.3c0.3,0,0.6,0.1,0.9,0.2c0.6,0.2,1,0.7,1.2,1.2c0.2,0.6,0.2,1.2,0,1.7c-5.9,13.4-14.2,25.3-24.5,35.1
			C1303.4,316.6,1303,317,1302.9,317.1z"/>
		<path class="st40" d="M1330.7,202.6c1.9,0.8,4.1-0.1,4.9-2c0.8-1.9-0.1-4.1-2-4.9c-4.2-1.8-8.6-2.6-13.1-2.6
			c-18.6,0-33.8,15.1-33.8,33.8c0,9.2-1.1,17.7-3.3,25.4c-0.6,2,0.6,4.1,2.6,4.6c0.3,0.1,0.7,0.1,1,0.1c1.6,0,3.1-1.1,3.6-2.7
			c2.4-8.3,3.6-17.6,3.6-27.5c0-14.5,11.8-26.2,26.2-26.2C1324.1,200.6,1327.5,201.2,1330.7,202.6z"/>
		<path class="st40" d="M1287,255.5c-0.2,0-0.4,0-0.6-0.1c-1.2-0.3-1.9-1.6-1.5-2.8c2.3-7.8,3.4-16.5,3.4-25.8
			c0-17.8,14.5-32.2,32.2-32.2c4.3,0,8.6,0.9,12.5,2.5c1.1,0.5,1.7,1.8,1.2,3c-0.4,0.8-1.2,1.4-2.1,1.4l0,0c-0.3,0-0.6-0.1-0.9-0.2
			c-3.4-1.4-7-2.2-10.8-2.2c-15.3,0-27.8,12.4-27.8,27.8c0,9.7-1.2,18.8-3.6,27C1288.9,254.8,1288,255.5,1287,255.5z"/>
		<path class="st40" d="M1331.7,264.7c0.3,0.1,0.6,0.1,0.9,0.1c1.7,0,3.2-1.1,3.6-2.9c2.7-11,4.1-22.8,4.1-35.1
			c0-10.3-8.4-18.8-18.8-18.8c-10.3,0-18.8,8.4-18.8,18.8c0,2.1,1.7,3.8,3.8,3.8c2.1,0,3.8-1.7,3.8-3.8c0-6.2,5-11.2,11.2-11.2
			c6.2,0,11.2,5,11.2,11.2c0,11.8-1.3,23-3.8,33.4C1328.4,262.2,1329.7,264.2,1331.7,264.7z"/>
		<path class="st40" d="M1332.6,263.3c-0.2,0-0.4,0-0.5-0.1c-0.6-0.1-1.1-0.5-1.4-1c-0.3-0.5-0.4-1.1-0.3-1.7
			c2.6-10.5,3.9-21.9,3.9-33.7c0-7-5.7-12.8-12.8-12.8s-12.8,5.7-12.8,12.8c0,1.2-1,2.2-2.2,2.2s-2.2-1-2.2-2.2
			c0-9.5,7.7-17.2,17.2-17.2s17.2,7.7,17.2,17.2c0,12.2-1.4,23.9-4,34.8C1334.5,262.6,1333.6,263.3,1332.6,263.3z"/>
		<path class="st40" d="M1350.8,211.9c-0.9-1.9-3.2-2.6-5-1.7c-1.9,0.9-2.6,3.2-1.7,5c1.8,3.6,2.7,7.5,2.7,11.6
			c0,46.3-18,75.6-34.6,92.8c1.6,0.1,3.1,0.1,4.7,0.1c1.8,0,3.7-0.1,5.4-0.2c16.1-18.7,31.9-48.4,31.9-92.8
			C1354.3,221.6,1353.1,216.5,1350.8,211.9z"/>
		<path class="st40" d="M1316.9,318.2c-0.5,0-0.9,0-1.4,0c15.4-17,32.7-46.1,32.7-91.4c0-4.3-1-8.5-2.9-12.3
			c-0.3-0.5-0.3-1.1-0.1-1.7c0.2-0.6,0.6-1,1.1-1.3c0.3-0.2,0.6-0.2,1-0.2c0.9,0,1.6,0.5,2,1.2c2.2,4.5,3.3,9.3,3.3,14.3
			c0,45.1-16.8,74.5-31.1,91.3C1320.2,318.2,1318.6,318.2,1316.9,318.2z"/>
		<path class="st40" d="M1356.6,279.3c-1.9-0.7-4.1,0.3-4.8,2.3c-4.8,13.5-11.5,25.9-19.9,36.9c3.7-0.6,7.4-1.4,11-2.5
			c6.6-9.8,11.9-20.5,16-31.9C1359.6,282.2,1358.6,280,1356.6,279.3z"/>
		<path class="st40" d="M1335.4,316.4c7.5-10.3,13.5-21.8,17.9-34.2c0.3-0.9,1.2-1.5,2.1-1.5c0.3,0,0.5,0,0.7,0.1
			c1.2,0.4,1.8,1.7,1.4,2.9c-4,11.1-9.2,21.6-15.5,31.1C1339.8,315.4,1337.6,315.9,1335.4,316.4z"/>
		<path class="st40" d="M1362.6,254c0.2,0,0.3,0,0.5,0c1.9,0,3.5-1.4,3.7-3.3c1-7.7,1.5-15.8,1.5-24c0-26.9-21.9-48.8-48.8-48.8
			c-23.3,0-43.5,16.6-47.9,39.6c-0.4,2,0.9,4,3,4.4c2,0.4,4-0.9,4.4-3c3.7-19.4,20.8-33.5,40.5-33.5c22.7,0,41.2,18.5,41.2,41.2
			c0,7.9-0.5,15.6-1.4,23C1359.1,251.9,1360.5,253.8,1362.6,254z"/>
		<path class="st40" d="M1363.1,252.5c-0.1,0-0.2,0-0.3,0c-0.6-0.1-1.1-0.4-1.5-0.9c-0.4-0.5-0.5-1.1-0.4-1.7
			c1-7.5,1.5-15.3,1.5-23.2c0-23.6-19.2-42.8-42.8-42.8c-20.5,0-38.1,14.6-42,34.7c-0.2,1.1-1.1,1.8-2.2,1.8c-0.1,0-0.3,0-0.4,0
			c-1.2-0.2-2-1.4-1.8-2.6c4.3-22.2,23.8-38.3,46.4-38.3c26.1,0,47.3,21.2,47.3,47.2c0,8.1-0.5,16.1-1.5,23.8
			C1365.1,251.7,1364.2,252.5,1363.1,252.5z"/>
		<path class="st40" d="M1366.8,185.2c-9.9-11.4-23.5-19-38.4-21.3c-2.1-0.3-4,1.1-4.3,3.1c-0.3,2.1,1.1,4,3.1,4.3
			c27.1,4.2,47.6,28.1,47.6,55.6c0,36.6-9.5,64.7-21.8,85.7c4.1-1.7,8-3.7,11.7-5.9c10.2-20.7,17.6-47,17.6-79.8
			C1382.3,211.5,1376.8,196.7,1366.8,185.2z"/>
		<path class="st40" d="M1356.5,309.3c13.1-24.1,19.8-51.8,19.8-82.5c0-28.2-21-52.7-48.8-57.1c-0.6-0.1-1.1-0.4-1.5-0.9
			c-0.4-0.5-0.5-1.1-0.4-1.7c0.2-1.1,1.1-1.9,2.2-1.9c0.1,0,0.2,0,0.4,0c14.5,2.3,27.8,9.7,37.5,20.8c9.8,11.3,15.2,25.7,15.2,40.7
			c0,29-5.8,55.4-17.2,78.7C1361.3,306.9,1358.9,308.1,1356.5,309.3z"/>
		<path class="st40" d="M1377.5,188.4c0.7,1.1,1.9,1.7,3.2,1.7c0.7,0,1.4-0.2,2-0.6c1.7-1.1,2.2-3.4,1.1-5.2
			c-14.6-22.7-39.4-36.3-66.3-36.3c-25.5,0-49.5,12.4-64.3,33.3c-1.2,1.7-0.8,4,0.9,5.2c1.7,1.2,4,0.8,5.2-0.9
			c13.4-18.9,35.1-30.2,58.2-30.2C1341.9,155.6,1364.3,167.8,1377.5,188.4z"/>
		<path class="st40" d="M1380.7,188.6c-0.8,0-1.5-0.4-1.9-1c-13.5-21-36.4-33.5-61.2-33.5c-23.5,0-45.7,11.5-59.4,30.8
			c-0.4,0.6-1.1,0.9-1.8,0.9c-0.5,0-0.9-0.1-1.3-0.4c-1-0.7-1.3-2.1-0.5-3.1c14.5-20.5,38.1-32.7,63.1-32.7
			c26.4,0,50.7,13.3,65,35.6c0.3,0.5,0.4,1.1,0.3,1.7c-0.1,0.6-0.5,1.1-1,1.4C1381.5,188.5,1381.1,188.6,1380.7,188.6z"/>
		<path class="st40" d="M1319,133.1c-0.7,0-1.3,0-2,0h-0.2c-51.5,0.1-93.1,41.8-93.1,93.3c0,5.5,0.5,11,1.4,16.3
			c0.3-0.1,0.6-0.2,0.8-0.4c0.8-0.3,1.5-0.9,1.9-1.7c1.1-2.2,2.5-6.3,2.5-13.8c0-47.6,38.7-86.2,86.2-86.2
			c47.6,0,86.2,38.7,86.2,86.2c0,16.6-1.7,31.8-4.6,45.6c7.7-13.5,12.1-29.2,12.1-45.8v-0.2C1410.3,175.5,1369.6,134.1,1319,133.1z"
			/>
		<path class="st40" d="M1401.6,262.1c1.8-11.3,2.7-23.2,2.7-35.2c0-48.4-39.4-87.8-87.8-87.8s-87.8,39.4-87.8,87.8
			c0,7.2-1.3,11-2.3,13.1c-0.1,0.2-0.2,0.3-0.3,0.5c-0.7-4.6-1.1-9.2-1.1-13.9c0-50.5,41.1-91.7,91.6-91.8h0.2c0.7,0,1.3,0,2,0
			c24.1,0.5,46.7,10.3,63.6,27.5c16.9,17.3,26.3,40.1,26.3,64.3v0.2C1408.8,238.8,1406.3,250.9,1401.6,262.1z"/>
		<path class="st40" d="M1392.5,223.1c-2.1,0-3.8,1.7-3.8,3.8c0,28.8-5.4,52.7-13.5,72.5c4.4-3.5,8.5-7.5,12.2-11.7
			c5.5-17.5,8.9-37.6,8.9-60.8C1396.3,224.7,1394.6,223.1,1392.5,223.1z"/>
		<path class="st40" d="M1378.8,294.3c7.6-20.6,11.5-43.3,11.5-67.5c0-1.2,1-2.2,2.2-2.2s2.2,1,2.2,2.2c0,21.2-2.9,41.4-8.7,60
			C1383.8,289.4,1381.4,291.9,1378.8,294.3z"/>
	</g>
	<radialGradient id="SVGID_39_" cx="2173" cy="234" r="362.0017" gradientUnits="userSpaceOnUse">
		<stop  offset="0" style="stop-color:#130C0E;stop-opacity:0"/>
		<stop  offset="0.3384" style="stop-color:#120B11;stop-opacity:0.3214"/>
		<stop  offset="0.5698" style="stop-color:#0F091A;stop-opacity:0.5413"/>
		<stop  offset="0.7694" style="stop-color:#0A0629;stop-opacity:0.7309"/>
		<stop  offset="0.9499" style="stop-color:#03023F;stop-opacity:0.9024"/>
		<stop  offset="1" style="stop-color:#000046;stop-opacity:0.95"/>
	</radialGradient>
	<rect x="1798" y="-16" class="st41" width="750" height="500"/>
	<circle class="st42" cx="1316.9" cy="225.1" r="105.6"/>
	<text transform="matrix(1 0 0 1 1252.5377 378.2842)" class="st40 st48" style="font-family:'RoundedElegance-Regular';">singular</text>
	<circle class="st43" cx="1394.8" cy="289.2" r="30.5"/>
	<g>
		<path class="st44" d="M1407.2,293.4h-8v7.8h-8.8v-7.8h-8v-8.3h8v-7.8h8.8v7.8h8V293.4z"/>
	</g>
	<text transform="matrix(1 0 0 1 715.7787 378.2842)" class="st45 st48" style="font-family:'RoundedElegance-Regular';">singular</text>
	<path class="st46" d="M790.5,322.5L790.5,322.5c16,0,29-13,29-29v-47.9c0-2.5,2.1-4.6,4.6-4.6h52.6c13.4,0,24.3-10.9,24.3-24.3V212
		c0-13.2-10.7-24-24-24H767v0.5h-0.5v110C766.5,311.8,777.2,322.5,790.5,322.5z"/>
	<path class="st45" d="M788.5,100.5L788.5,100.5c-16,0-29,13-29,29v47.9c0,2.5-2.1,4.6-4.6,4.6h-52.6c-13.4,0-24.3,10.9-24.3,24.3
		v4.7c0,13.2,10.7,24,24,24h110v-0.5h0.5v-110C812.5,111.2,801.8,100.5,788.5,100.5z"/>
	<g>
		<text transform="matrix(1 0 0 1 160.2024 388.3921)" class="st40 st47 st48">singular</text>
	</g>
	<path class="st49" d="M238.9,110.6L238.9,110.6c-16,0-29,13-29,29v52.5h-54.8c-14.7,0-26.7,11.9-26.7,26.7v0
		c0,14.5,11.8,26.3,26.3,26.3h107.7v-0.5h0.5v-110C262.9,121.3,252.1,110.6,238.9,110.6z"/>
	<polyline class="st50" points="216.9,259.1 216.9,332.6 269.9,332.6 269.9,251.1 351,251.1 351,198.1 284.1,198.1 	"/>
</g>
</svg>
